<?xml version="1.0" encoding="UTF-8" standalone="no"?>
<!DOCTYPE svg PUBLIC "-//W3C//DTD SVG 1.1//EN"
 "http://www.w3.org/Graphics/SVG/1.1/DTD/svg11.dtd">
<!-- Generated by graphviz version 3.0.0 (20220226.1711)
 -->
<!-- Pages: 1 -->
<svg width="1833pt" height="1113pt"
 viewBox="0.00 0.00 1833.43 1113.00" xmlns="http://www.w3.org/2000/svg" xmlns:xlink="http://www.w3.org/1999/xlink">
<g id="graph0" class="graph" transform="scale(1 1) rotate(0) translate(4 1109)">
<polygon fill="white" stroke="transparent" points="-4,4 -4,-1109 1829.43,-1109 1829.43,4 -4,4"/>
<g id="clust1" class="cluster">
<title>cluster&#45;nid&#45;02</title>
<polygon fill="none" stroke="#cccccc" points="36.99,-107 36.99,-177 493.11,-177 493.11,-107 36.99,-107"/>
</g>
<g id="clust2" class="cluster">
<title>cluster&#45;nid&#45;03</title>
<polygon fill="none" stroke="#cccccc" points="36.99,-22 36.99,-92 493.11,-92 493.11,-22 36.99,-22"/>
</g>
<g id="clust5" class="cluster">
<title>cluster&#45;nid&#45;06</title>
<polygon fill="none" stroke="#cccccc" points="8,-283 8,-353 154.11,-353 154.11,-283 8,-283"/>
</g>
<g id="clust6" class="cluster">
<title>cluster&#45;nid&#45;07</title>
<polygon fill="none" stroke="#cccccc" points="1156.53,-1016 1156.53,-1086 1529.3,-1086 1529.3,-1016 1156.53,-1016"/>
</g>
<g id="clust7" class="cluster">
<title>cluster&#45;nid&#45;08</title>
<polygon fill="none" stroke="#cccccc" points="1450.24,-766 1450.24,-836 1817.43,-836 1817.43,-766 1450.24,-766"/>
</g>
<g id="clust8" class="cluster">
<title>cluster&#45;nid&#45;09</title>
<polygon fill="none" stroke="#cccccc" points="1450.24,-408 1450.24,-478 1817.43,-478 1817.43,-408 1450.24,-408"/>
</g>
<g id="clust18" class="cluster">
<title>cluster&#45;nid&#45;12&#45;out</title>
<polygon fill="none" stroke="#cccccc" points="379.11,-919 379.11,-1003 537.11,-1003 537.11,-919 379.11,-919"/>
</g>
<g id="clust20" class="cluster">
<title>cluster&#45;nid&#45;13&#45;out</title>
<polygon fill="none" stroke="#cccccc" points="368.11,-1011 368.11,-1095 548.11,-1095 548.11,-1011 368.11,-1011"/>
</g>
<g id="clust21" class="cluster">
<title>cluster&#45;nid&#45;14&#45;in</title>
<polygon fill="none" stroke="#cccccc" points="762.5,-192 762.5,-276 941.5,-276 941.5,-192 762.5,-192"/>
</g>
<g id="clust27" class="cluster">
<title>cluster&#45;nid&#45;18&#45;out</title>
<polygon fill="none" stroke="#cccccc" points="369.61,-623 369.61,-707 546.61,-707 546.61,-623 369.61,-623"/>
</g>
<g id="clust29" class="cluster">
<title>cluster&#45;nid&#45;19&#45;out</title>
<polygon fill="none" stroke="#cccccc" points="369.61,-508 369.61,-592 546.61,-592 546.61,-508 369.61,-508"/>
</g>
<g id="clust31" class="cluster">
<title>cluster&#45;nid&#45;1a&#45;out</title>
<polygon fill="none" stroke="#cccccc" points="369.61,-371 369.61,-455 546.61,-455 546.61,-371 369.61,-371"/>
</g>
<g id="clust32" class="cluster">
<title>cluster&#45;nid&#45;1b&#45;in</title>
<polygon fill="none" stroke="#cccccc" points="763.5,-8 763.5,-92 1226.53,-92 1226.53,-8 763.5,-8"/>
</g>
<g id="clust33" class="cluster">
<title>cluster&#45;nid&#45;1b&#45;out</title>
<polygon fill="none" stroke="#cccccc" points="46.05,-824 46.05,-908 546.61,-908 546.61,-824 46.05,-824"/>
</g>
<g id="clust36" class="cluster">
<title>cluster&#45;nid&#45;1d&#45;out</title>
<polygon fill="none" stroke="#cccccc" points="354.11,-726 354.11,-810 562.11,-810 562.11,-726 354.11,-726"/>
</g>
<g id="clust37" class="cluster">
<title>cluster&#45;nid&#45;1e&#45;in</title>
<polygon fill="none" stroke="#cccccc" points="369.61,-276 369.61,-360 546.61,-360 546.61,-276 369.61,-276"/>
</g>
<g id="clust41" class="cluster">
<title>cluster&#45;nid&#45;21&#45;in</title>
<polygon fill="none" stroke="#cccccc" points="762.5,-100 762.5,-184 941.5,-184 941.5,-100 762.5,-100"/>
</g>
<g id="clust43" class="cluster">
<title>cluster&#45;nid&#45;22</title>
<polygon fill="none" stroke="#cccccc" points="762.11,-284 762.11,-602 1241.18,-602 1241.18,-284 762.11,-284"/>
</g>
<g id="clust44" class="cluster">
<title>cluster&#45;nid&#45;23</title>
<polygon fill="none" stroke="#cccccc" points="762.11,-610 762.11,-992 1241.18,-992 1241.18,-610 762.11,-610"/>
</g>
<g id="clust45" class="cluster">
<title>cluster&#45;nid&#45;24</title>
<polygon fill="none" stroke="#cccccc" points="791.13,-1005 791.13,-1097 912.87,-1097 912.87,-1005 791.13,-1005"/>
</g>
<!-- nid&#45;02 -->
<g id="node1" class="node">
<title>nid&#45;02</title>
<ellipse fill="none" stroke="blue" cx="81.05" cy="-142" rx="36.12" ry="26.74"/>
<text text-anchor="middle" x="81.05" y="-145.8" font-family="Times,serif" font-size="14.00">2</text>
<text text-anchor="middle" x="81.05" y="-130.8" font-family="Times,serif" font-size="14.00">Stereo</text>
</g>
<!-- nid&#45;02&#45;ampout -->
<g id="node2" class="node">
<title>nid&#45;02&#45;ampout</title>
<polygon fill="none" stroke="#0000ff" points="485.11,-142 444.61,-160 444.61,-124 485.11,-142"/>
</g>
<!-- nid&#45;02&#45;&gt;nid&#45;02&#45;ampout -->
<g id="edge1" class="edge">
<title>nid&#45;02&#45;&gt;nid&#45;02&#45;ampout</title>
<path fill="none" stroke="#0000ff" d="M117.34,-142C195.42,-142 380.54,-142 439.05,-142"/>
<polygon fill="#0000ff" stroke="#0000ff" points="439.31,-143.75 444.31,-142 439.31,-140.25 439.31,-143.75"/>
</g>
<!-- nid&#45;14&#45;in -->
<g id="node17" class="node">
<title>nid&#45;14&#45;in</title>
<polygon fill="none" stroke="green" points="933.5,-268 770.5,-268 770.5,-200 933.5,-200 933.5,-268"/>
<text text-anchor="middle" x="852" y="-252.8" font-family="Times,serif" font-size="14.00">20</text>
<text text-anchor="middle" x="852" y="-237.8" font-family="Times,serif" font-size="14.00">[Fixed] Speaker at Int N/A</text>
<text text-anchor="middle" x="852" y="-222.8" font-family="Times,serif" font-size="14.00">Stereo</text>
<text text-anchor="middle" x="852" y="-207.8" font-family="Times,serif" font-size="14.00">OUT EAPD Detect</text>
</g>
<!-- nid&#45;02&#45;ampout&#45;&gt;nid&#45;14&#45;in -->
<g id="edge9" class="edge">
<title>nid&#45;02&#45;ampout&#45;&gt;nid&#45;14&#45;in</title>
<path fill="none" stroke="#333333" d="M476.2,-146.01C524.72,-157.4 665.9,-190.55 760.46,-212.74"/>
<polygon fill="#333333" stroke="#333333" points="759.78,-216.18 770.31,-215.06 761.38,-209.37 759.78,-216.18"/>
</g>
<!-- nid&#45;1b&#45;in -->
<g id="node21" class="node">
<title>nid&#45;1b&#45;in</title>
<polygon fill="none" stroke="green" points="932.5,-84 771.5,-84 771.5,-16 932.5,-16 932.5,-84"/>
<text text-anchor="middle" x="852" y="-68.8" font-family="Times,serif" font-size="14.00">27</text>
<text text-anchor="middle" x="852" y="-53.8" font-family="Times,serif" font-size="14.00">[N/A] Speaker at Ext Rear</text>
<text text-anchor="middle" x="852" y="-38.8" font-family="Times,serif" font-size="14.00">Stereo</text>
<text text-anchor="middle" x="852" y="-23.8" font-family="Times,serif" font-size="14.00">IN OUT EAPD Detect</text>
</g>
<!-- nid&#45;02&#45;ampout&#45;&gt;nid&#45;1b&#45;in -->
<g id="edge12" class="edge">
<title>nid&#45;02&#45;ampout&#45;&gt;nid&#45;1b&#45;in</title>
<path fill="none" stroke="#333333" d="M476.2,-137.99C524.86,-126.56 666.73,-93.26 761.29,-71.06"/>
<polygon fill="#333333" stroke="#333333" points="762.21,-74.44 771.14,-68.75 760.61,-67.63 762.21,-74.44"/>
</g>
<!-- nid&#45;21&#45;in -->
<g id="node27" class="node">
<title>nid&#45;21&#45;in</title>
<polygon fill="none" stroke="green" points="933.5,-176 770.5,-176 770.5,-108 933.5,-108 933.5,-176"/>
<text text-anchor="middle" x="852" y="-160.8" font-family="Times,serif" font-size="14.00">33</text>
<text text-anchor="middle" x="852" y="-145.8" font-family="Times,serif" font-size="14.00">[Jack] HP Out at Ext Front</text>
<text text-anchor="middle" x="852" y="-130.8" font-family="Times,serif" font-size="14.00">Stereo</text>
<text text-anchor="middle" x="852" y="-115.8" font-family="Times,serif" font-size="14.00">OUT HP EAPD Detect</text>
</g>
<!-- nid&#45;02&#45;ampout&#45;&gt;nid&#45;21&#45;in -->
<g id="edge15" class="edge">
<title>nid&#45;02&#45;ampout&#45;&gt;nid&#45;21&#45;in</title>
<path fill="none" stroke="gray" stroke-dasharray="5,2" d="M485.12,-142C540.19,-142 670.76,-142 760.05,-142"/>
<polygon fill="gray" stroke="gray" points="760.19,-145.5 770.19,-142 760.19,-138.5 760.19,-145.5"/>
</g>
<!-- nid&#45;03 -->
<g id="node3" class="node">
<title>nid&#45;03</title>
<ellipse fill="none" stroke="blue" cx="81.05" cy="-57" rx="36.12" ry="26.74"/>
<text text-anchor="middle" x="81.05" y="-60.8" font-family="Times,serif" font-size="14.00">3</text>
<text text-anchor="middle" x="81.05" y="-45.8" font-family="Times,serif" font-size="14.00">Stereo</text>
</g>
<!-- nid&#45;03&#45;ampout -->
<g id="node4" class="node">
<title>nid&#45;03&#45;ampout</title>
<polygon fill="none" stroke="#0000ff" points="485.11,-57 444.61,-75 444.61,-39 485.11,-57"/>
</g>
<!-- nid&#45;03&#45;&gt;nid&#45;03&#45;ampout -->
<g id="edge2" class="edge">
<title>nid&#45;03&#45;&gt;nid&#45;03&#45;ampout</title>
<path fill="none" stroke="#0000ff" d="M117.34,-57C195.42,-57 380.54,-57 439.05,-57"/>
<polygon fill="#0000ff" stroke="#0000ff" points="439.31,-58.75 444.31,-57 439.31,-55.25 439.31,-58.75"/>
</g>
<!-- nid&#45;03&#45;ampout&#45;&gt;nid&#45;1b&#45;in -->
<g id="edge13" class="edge">
<title>nid&#45;03&#45;ampout&#45;&gt;nid&#45;1b&#45;in</title>
<path fill="none" stroke="gray" stroke-dasharray="5,2" d="M484.22,-56.55C538.96,-55.57 671.3,-53.21 761.11,-51.61"/>
<polygon fill="gray" stroke="gray" points="761.36,-55.1 771.3,-51.42 761.24,-48.1 761.36,-55.1"/>
</g>
<!-- nid&#45;03&#45;ampout&#45;&gt;nid&#45;21&#45;in -->
<g id="edge16" class="edge">
<title>nid&#45;03&#45;ampout&#45;&gt;nid&#45;21&#45;in</title>
<path fill="none" stroke="#333333" d="M476.71,-60.82C525.69,-71.44 666.17,-101.91 760.39,-122.35"/>
<polygon fill="#333333" stroke="#333333" points="759.7,-125.78 770.22,-124.48 761.19,-118.94 759.7,-125.78"/>
</g>
<!-- nid&#45;06 -->
<g id="node5" class="node">
<title>nid&#45;06</title>
<ellipse fill="none" stroke="blue" cx="81.05" cy="-318" rx="65.11" ry="26.74"/>
<text text-anchor="middle" x="81.05" y="-321.8" font-family="Times,serif" font-size="14.00">6</text>
<text text-anchor="middle" x="81.05" y="-306.8" font-family="Times,serif" font-size="14.00">Stereo Digital</text>
</g>
<!-- nid&#45;1e&#45;in -->
<g id="node26" class="node">
<title>nid&#45;1e&#45;in</title>
<polygon fill="none" stroke="green" points="538.61,-352 377.61,-352 377.61,-284 538.61,-284 538.61,-352"/>
<text text-anchor="middle" x="458.11" y="-336.8" font-family="Times,serif" font-size="14.00">30</text>
<text text-anchor="middle" x="458.11" y="-321.8" font-family="Times,serif" font-size="14.00">[N/A] Speaker at Ext Rear</text>
<text text-anchor="middle" x="458.11" y="-306.8" font-family="Times,serif" font-size="14.00">Stereo Digital</text>
<text text-anchor="middle" x="458.11" y="-291.8" font-family="Times,serif" font-size="14.00">OUT Detect</text>
</g>
<!-- nid&#45;06&#45;&gt;nid&#45;1e&#45;in -->
<g id="edge14" class="edge">
<title>nid&#45;06&#45;&gt;nid&#45;1e&#45;in</title>
<path fill="none" stroke="#333333" d="M146.53,-318C207.39,-318 299.21,-318 367.24,-318"/>
<polygon fill="#333333" stroke="#333333" points="367.52,-321.5 377.52,-318 367.52,-314.5 367.52,-321.5"/>
</g>
<!-- nid&#45;07 -->
<g id="node6" class="node">
<title>nid&#45;07</title>
<ellipse fill="none" stroke="red" cx="1485.24" cy="-1051" rx="36.12" ry="26.74"/>
<text text-anchor="middle" x="1485.24" y="-1054.8" font-family="Times,serif" font-size="14.00">7</text>
<text text-anchor="middle" x="1485.24" y="-1039.8" font-family="Times,serif" font-size="14.00">Stereo</text>
</g>
<!-- nid&#45;07&#45;ampin -->
<g id="node7" class="node">
<title>nid&#45;07&#45;ampin</title>
<polygon fill="none" stroke="#c8c8c8" points="1218.53,-1051 1178.03,-1069 1178.03,-1033 1218.53,-1051"/>
</g>
<!-- nid&#45;07&#45;ampin&#45;&gt;nid&#45;07 -->
<g id="edge3" class="edge">
<title>nid&#45;07&#45;ampin&#45;&gt;nid&#45;07</title>
<path fill="none" stroke="#c8c8c8" d="M1218.68,-1051C1269.72,-1051 1382.94,-1051 1443.75,-1051"/>
<polygon fill="#c8c8c8" stroke="#c8c8c8" points="1444.11,-1052.75 1449.11,-1051 1444.11,-1049.25 1444.11,-1052.75"/>
</g>
<!-- nid&#45;24 -->
<g id="node8" class="node">
<title>nid&#45;24</title>
<polygon fill="none" stroke="black" points="904.75,-1089 820.84,-1089 799.25,-1013 883.16,-1013 904.75,-1089"/>
<text text-anchor="middle" x="852" y="-1054.8" font-family="Times,serif" font-size="14.00">36</text>
<text text-anchor="middle" x="852" y="-1039.8" font-family="Times,serif" font-size="14.00">Stereo</text>
</g>
<!-- nid&#45;24&#45;&gt;nid&#45;07&#45;ampin -->
<g id="edge4" class="edge">
<title>nid&#45;24&#45;&gt;nid&#45;07&#45;ampin</title>
<path fill="none" stroke="#333333" d="M894.05,-1051C965.72,-1051 1111.37,-1051 1167.64,-1051"/>
<polygon fill="#333333" stroke="#333333" points="1167.94,-1054.5 1177.94,-1051 1167.94,-1047.5 1167.94,-1054.5"/>
</g>
<!-- nid&#45;08 -->
<g id="node9" class="node">
<title>nid&#45;08</title>
<ellipse fill="none" stroke="red" cx="1773.36" cy="-801" rx="36.12" ry="26.74"/>
<text text-anchor="middle" x="1773.36" y="-804.8" font-family="Times,serif" font-size="14.00">8</text>
<text text-anchor="middle" x="1773.36" y="-789.8" font-family="Times,serif" font-size="14.00">Stereo</text>
</g>
<!-- nid&#45;08&#45;ampin -->
<g id="node10" class="node">
<title>nid&#45;08&#45;ampin</title>
<polygon fill="none" stroke="#c8c8c8" points="1512.24,-801 1471.74,-819 1471.74,-783 1512.24,-801"/>
</g>
<!-- nid&#45;08&#45;ampin&#45;&gt;nid&#45;08 -->
<g id="edge5" class="edge">
<title>nid&#45;08&#45;ampin&#45;&gt;nid&#45;08</title>
<path fill="none" stroke="#c8c8c8" d="M1512.39,-801C1562.47,-801 1672.24,-801 1731.87,-801"/>
<polygon fill="#c8c8c8" stroke="#c8c8c8" points="1732.13,-802.75 1737.13,-801 1732.13,-799.25 1732.13,-802.75"/>
</g>
<!-- nid&#45;23 -->
<g id="node11" class="node">
<title>nid&#45;23</title>
<polygon fill="none" stroke="black" points="1233.32,-801 1212.43,-832.05 1170.64,-832.05 1149.75,-801 1170.64,-769.95 1212.43,-769.95 1233.32,-801"/>
<text text-anchor="middle" x="1191.53" y="-804.8" font-family="Times,serif" font-size="14.00">35</text>
<text text-anchor="middle" x="1191.53" y="-789.8" font-family="Times,serif" font-size="14.00">Stereo</text>
</g>
<!-- nid&#45;23&#45;&gt;nid&#45;08&#45;ampin -->
<g id="edge6" class="edge">
<title>nid&#45;23&#45;&gt;nid&#45;08&#45;ampin</title>
<path fill="none" stroke="#333333" d="M1233.4,-801C1295.66,-801 1412.22,-801 1461.41,-801"/>
<polygon fill="#333333" stroke="#333333" points="1461.62,-804.5 1471.62,-801 1461.62,-797.5 1461.62,-804.5"/>
</g>
<!-- nid&#45;09 -->
<g id="node12" class="node">
<title>nid&#45;09</title>
<ellipse fill="none" stroke="red" cx="1773.36" cy="-443" rx="36.12" ry="26.74"/>
<text text-anchor="middle" x="1773.36" y="-446.8" font-family="Times,serif" font-size="14.00">9</text>
<text text-anchor="middle" x="1773.36" y="-431.8" font-family="Times,serif" font-size="14.00">Stereo</text>
</g>
<!-- nid&#45;09&#45;ampin -->
<g id="node13" class="node">
<title>nid&#45;09&#45;ampin</title>
<polygon fill="none" stroke="#c8c8c8" points="1512.24,-443 1471.74,-461 1471.74,-425 1512.24,-443"/>
</g>
<!-- nid&#45;09&#45;ampin&#45;&gt;nid&#45;09 -->
<g id="edge7" class="edge">
<title>nid&#45;09&#45;ampin&#45;&gt;nid&#45;09</title>
<path fill="none" stroke="#c8c8c8" d="M1512.39,-443C1562.47,-443 1672.24,-443 1731.87,-443"/>
<polygon fill="#c8c8c8" stroke="#c8c8c8" points="1732.13,-444.75 1737.13,-443 1732.13,-441.25 1732.13,-444.75"/>
</g>
<!-- nid&#45;22 -->
<g id="node14" class="node">
<title>nid&#45;22</title>
<polygon fill="none" stroke="black" points="1233.32,-443 1212.43,-474.05 1170.64,-474.05 1149.75,-443 1170.64,-411.95 1212.43,-411.95 1233.32,-443"/>
<text text-anchor="middle" x="1191.53" y="-446.8" font-family="Times,serif" font-size="14.00">34</text>
<text text-anchor="middle" x="1191.53" y="-431.8" font-family="Times,serif" font-size="14.00">Stereo</text>
</g>
<!-- nid&#45;22&#45;&gt;nid&#45;09&#45;ampin -->
<g id="edge8" class="edge">
<title>nid&#45;22&#45;&gt;nid&#45;09&#45;ampin</title>
<path fill="none" stroke="#333333" d="M1233.4,-443C1295.66,-443 1412.22,-443 1461.41,-443"/>
<polygon fill="#333333" stroke="#333333" points="1461.62,-446.5 1471.62,-443 1461.62,-439.5 1461.62,-446.5"/>
</g>
<!-- nid&#45;12&#45;out -->
<g id="node15" class="node">
<title>nid&#45;12&#45;out</title>
<polygon fill="none" stroke="green" points="529.11,-995 387.11,-995 387.11,-927 529.11,-927 529.11,-995"/>
<text text-anchor="middle" x="458.11" y="-979.8" font-family="Times,serif" font-size="14.00">18</text>
<text text-anchor="middle" x="458.11" y="-964.8" font-family="Times,serif" font-size="14.00">[Fixed] Mic at Int N/A</text>
<text text-anchor="middle" x="458.11" y="-949.8" font-family="Times,serif" font-size="14.00">Stereo</text>
<text text-anchor="middle" x="458.11" y="-934.8" font-family="Times,serif" font-size="14.00">IN</text>
</g>
<!-- nid&#45;12&#45;out&#45;&gt;nid&#45;24 -->
<g id="edge39" class="edge">
<title>nid&#45;12&#45;out&#45;&gt;nid&#45;24</title>
<path fill="none" stroke="#333333" d="M529.17,-977.09C605.97,-994.73 727.52,-1022.64 797.18,-1038.64"/>
<polygon fill="#333333" stroke="#333333" points="796.54,-1042.08 807.07,-1040.91 798.11,-1035.26 796.54,-1042.08"/>
</g>
<!-- nid&#45;23&#45;ampin&#45;18 -->
<g id="node38" class="node">
<title>nid&#45;23&#45;ampin&#45;18</title>
<polygon fill="none" stroke="#c8c8c8" points="933.79,-961 811.11,-984 811.11,-938 933.79,-961"/>
<text text-anchor="middle" x="852" y="-957.3" font-family="Times,serif" font-size="14.00">5 (18)</text>
</g>
<!-- nid&#45;12&#45;out&#45;&gt;nid&#45;23&#45;ampin&#45;18 -->
<g id="edge38" class="edge">
<title>nid&#45;12&#45;out&#45;&gt;nid&#45;23&#45;ampin&#45;18</title>
<path fill="none" stroke="#333333" d="M529.17,-961C607.28,-961 731.67,-961 800.7,-961"/>
<polygon fill="#333333" stroke="#333333" points="800.88,-964.5 810.88,-961 800.88,-957.5 800.88,-964.5"/>
</g>
<!-- nid&#45;13&#45;out -->
<g id="node16" class="node">
<title>nid&#45;13&#45;out</title>
<polygon fill="none" stroke="green" points="540.11,-1087 376.11,-1087 376.11,-1019 540.11,-1019 540.11,-1087"/>
<text text-anchor="middle" x="458.11" y="-1071.8" font-family="Times,serif" font-size="14.00">19</text>
<text text-anchor="middle" x="458.11" y="-1056.8" font-family="Times,serif" font-size="14.00">[N/A] Line Out at Ext N/A</text>
<text text-anchor="middle" x="458.11" y="-1041.8" font-family="Times,serif" font-size="14.00">Stereo</text>
<text text-anchor="middle" x="458.11" y="-1026.8" font-family="Times,serif" font-size="14.00">IN</text>
</g>
<!-- nid&#45;13&#45;out&#45;&gt;nid&#45;24 -->
<g id="edge40" class="edge">
<title>nid&#45;13&#45;out&#45;&gt;nid&#45;24</title>
<path fill="none" stroke="gray" stroke-dasharray="5,2" d="M540.31,-1052.59C618.3,-1052.19 733.75,-1051.6 799.74,-1051.26"/>
<polygon fill="gray" stroke="gray" points="799.91,-1054.76 809.9,-1051.21 799.88,-1047.76 799.91,-1054.76"/>
</g>
<!-- nid&#45;18&#45;out -->
<g id="node18" class="node">
<title>nid&#45;18&#45;out</title>
<polygon fill="none" stroke="green" points="538.61,-699 377.61,-699 377.61,-631 538.61,-631 538.61,-699"/>
<text text-anchor="middle" x="458.11" y="-683.8" font-family="Times,serif" font-size="14.00">24</text>
<text text-anchor="middle" x="458.11" y="-668.8" font-family="Times,serif" font-size="14.00">[N/A] Speaker at Ext Rear</text>
<text text-anchor="middle" x="458.11" y="-653.8" font-family="Times,serif" font-size="14.00">Stereo</text>
<text text-anchor="middle" x="458.11" y="-638.8" font-family="Times,serif" font-size="14.00">IN Detect</text>
</g>
<!-- nid&#45;22&#45;ampin&#45;24 -->
<g id="node28" class="node">
<title>nid&#45;22&#45;ampin&#45;24</title>
<polygon fill="none" stroke="#c8c8c8" points="933.79,-443 811.11,-466 811.11,-420 933.79,-443"/>
<text text-anchor="middle" x="852" y="-439.3" font-family="Times,serif" font-size="14.00">0 (24)</text>
</g>
<!-- nid&#45;18&#45;out&#45;&gt;nid&#45;22&#45;ampin&#45;24 -->
<g id="edge22" class="edge">
<title>nid&#45;18&#45;out&#45;&gt;nid&#45;22&#45;ampin&#45;24</title>
<path fill="none" stroke="#333333" d="M510.38,-630.97C582.83,-583.22 711.93,-499.41 762.11,-475 774.45,-469 788.22,-463.5 801.17,-458.82"/>
<polygon fill="#333333" stroke="#333333" points="802.6,-462.02 810.87,-455.4 800.27,-455.42 802.6,-462.02"/>
</g>
<!-- nid&#45;23&#45;ampin&#45;24 -->
<g id="node33" class="node">
<title>nid&#45;23&#45;ampin&#45;24</title>
<polygon fill="none" stroke="#c8c8c8" points="933.79,-769 811.11,-792 811.11,-746 933.79,-769"/>
<text text-anchor="middle" x="852" y="-765.3" font-family="Times,serif" font-size="14.00">0 (24)</text>
</g>
<!-- nid&#45;18&#45;out&#45;&gt;nid&#45;23&#45;ampin&#45;24 -->
<g id="edge33" class="edge">
<title>nid&#45;18&#45;out&#45;&gt;nid&#45;23&#45;ampin&#45;24</title>
<path fill="none" stroke="#333333" d="M538.89,-686.17C617.43,-707.02 734.96,-738.21 801.12,-755.76"/>
<polygon fill="#333333" stroke="#333333" points="800.32,-759.17 810.88,-758.35 802.12,-752.41 800.32,-759.17"/>
</g>
<!-- nid&#45;19&#45;out -->
<g id="node19" class="node">
<title>nid&#45;19&#45;out</title>
<polygon fill="none" stroke="green" points="538.61,-584 377.61,-584 377.61,-516 538.61,-516 538.61,-584"/>
<text text-anchor="middle" x="458.11" y="-568.8" font-family="Times,serif" font-size="14.00">25</text>
<text text-anchor="middle" x="458.11" y="-553.8" font-family="Times,serif" font-size="14.00">[N/A] Speaker at Ext Rear</text>
<text text-anchor="middle" x="458.11" y="-538.8" font-family="Times,serif" font-size="14.00">Stereo</text>
<text text-anchor="middle" x="458.11" y="-523.8" font-family="Times,serif" font-size="14.00">IN Detect</text>
</g>
<!-- nid&#45;22&#45;ampin&#45;25 -->
<g id="node29" class="node">
<title>nid&#45;22&#45;ampin&#45;25</title>
<polygon fill="none" stroke="#c8c8c8" points="933.79,-379 811.11,-402 811.11,-356 933.79,-379"/>
<text text-anchor="middle" x="852" y="-375.3" font-family="Times,serif" font-size="14.00">1 (25)</text>
</g>
<!-- nid&#45;19&#45;out&#45;&gt;nid&#45;22&#45;ampin&#45;25 -->
<g id="edge23" class="edge">
<title>nid&#45;19&#45;out&#45;&gt;nid&#45;22&#45;ampin&#45;25</title>
<path fill="none" stroke="#333333" d="M529.08,-515.86C590.02,-486.61 681.07,-444.1 762.11,-411 774.69,-405.86 788.44,-400.69 801.29,-396.06"/>
<polygon fill="#333333" stroke="#333333" points="802.66,-399.28 810.9,-392.62 800.31,-392.69 802.66,-399.28"/>
</g>
<!-- nid&#45;23&#45;ampin&#45;25 -->
<g id="node34" class="node">
<title>nid&#45;23&#45;ampin&#45;25</title>
<polygon fill="none" stroke="#0000ff" points="933.79,-705 811.11,-728 811.11,-682 933.79,-705"/>
<text text-anchor="middle" x="852" y="-701.3" font-family="Times,serif" font-size="14.00">1 (25)</text>
</g>
<!-- nid&#45;19&#45;out&#45;&gt;nid&#45;23&#45;ampin&#45;25 -->
<g id="edge34" class="edge">
<title>nid&#45;19&#45;out&#45;&gt;nid&#45;23&#45;ampin&#45;25</title>
<path fill="none" stroke="#333333" d="M538.82,-583.38C599.73,-608.63 685.89,-643.82 762.11,-673 774.8,-677.86 788.59,-682.93 801.44,-687.56"/>
<polygon fill="#333333" stroke="#333333" points="800.45,-690.92 811.05,-691 802.82,-684.33 800.45,-690.92"/>
</g>
<!-- nid&#45;1a&#45;out -->
<g id="node20" class="node">
<title>nid&#45;1a&#45;out</title>
<polygon fill="none" stroke="green" points="538.61,-447 377.61,-447 377.61,-379 538.61,-379 538.61,-447"/>
<text text-anchor="middle" x="458.11" y="-431.8" font-family="Times,serif" font-size="14.00">26</text>
<text text-anchor="middle" x="458.11" y="-416.8" font-family="Times,serif" font-size="14.00">[N/A] Speaker at Ext Rear</text>
<text text-anchor="middle" x="458.11" y="-401.8" font-family="Times,serif" font-size="14.00">Stereo</text>
<text text-anchor="middle" x="458.11" y="-386.8" font-family="Times,serif" font-size="14.00">IN Detect</text>
</g>
<!-- nid&#45;22&#45;ampin&#45;26 -->
<g id="node30" class="node">
<title>nid&#45;22&#45;ampin&#45;26</title>
<polygon fill="none" stroke="#c8c8c8" points="932.69,-315 811.66,-338 811.66,-292 932.69,-315"/>
<text text-anchor="middle" x="852" y="-311.3" font-family="Times,serif" font-size="14.00">2 (26)</text>
</g>
<!-- nid&#45;1a&#45;out&#45;&gt;nid&#45;22&#45;ampin&#45;26 -->
<g id="edge24" class="edge">
<title>nid&#45;1a&#45;out&#45;&gt;nid&#45;22&#45;ampin&#45;26</title>
<path fill="none" stroke="#333333" d="M538.89,-393.05C617.65,-373.35 735.6,-343.86 801.65,-327.34"/>
<polygon fill="#333333" stroke="#333333" points="802.55,-330.72 811.4,-324.9 800.85,-323.93 802.55,-330.72"/>
</g>
<!-- nid&#45;23&#45;ampin&#45;26 -->
<g id="node35" class="node">
<title>nid&#45;23&#45;ampin&#45;26</title>
<polygon fill="none" stroke="#c8c8c8" points="932.69,-641 811.66,-664 811.66,-618 932.69,-641"/>
<text text-anchor="middle" x="852" y="-637.3" font-family="Times,serif" font-size="14.00">2 (26)</text>
</g>
<!-- nid&#45;1a&#45;out&#45;&gt;nid&#45;23&#45;ampin&#45;26 -->
<g id="edge35" class="edge">
<title>nid&#45;1a&#45;out&#45;&gt;nid&#45;23&#45;ampin&#45;26</title>
<path fill="none" stroke="#333333" d="M506.22,-447.05C564.41,-488.15 667.35,-557.73 762.11,-606 774.71,-612.42 788.79,-618.45 801.95,-623.63"/>
<polygon fill="#333333" stroke="#333333" points="800.75,-626.92 811.34,-627.25 803.27,-620.39 800.75,-626.92"/>
</g>
<!-- nid&#45;1b&#45;ampout -->
<g id="node22" class="node">
<title>nid&#45;1b&#45;ampout</title>
<polygon fill="none" stroke="#c8c8c8" points="1218.53,-50 1178.03,-68 1178.03,-32 1218.53,-50"/>
</g>
<!-- nid&#45;1b&#45;in&#45;&gt;nid&#45;1b&#45;ampout -->
<g id="edge10" class="edge">
<title>nid&#45;1b&#45;in&#45;&gt;nid&#45;1b&#45;ampout</title>
<path fill="none" stroke="#c8c8c8" d="M932.56,-50C1012,-50 1128.44,-50 1172.63,-50"/>
<polygon fill="#c8c8c8" stroke="#c8c8c8" points="1172.9,-51.75 1177.9,-50 1172.9,-48.25 1172.9,-51.75"/>
</g>
<!-- nid&#45;1b&#45;out -->
<g id="node23" class="node">
<title>nid&#45;1b&#45;out</title>
<polygon fill="none" stroke="green" points="538.61,-900 377.61,-900 377.61,-832 538.61,-832 538.61,-900"/>
<text text-anchor="middle" x="458.11" y="-884.8" font-family="Times,serif" font-size="14.00">27</text>
<text text-anchor="middle" x="458.11" y="-869.8" font-family="Times,serif" font-size="14.00">[N/A] Speaker at Ext Rear</text>
<text text-anchor="middle" x="458.11" y="-854.8" font-family="Times,serif" font-size="14.00">Stereo</text>
<text text-anchor="middle" x="458.11" y="-839.8" font-family="Times,serif" font-size="14.00">IN OUT EAPD Detect</text>
</g>
<!-- nid&#45;22&#45;ampin&#45;27 -->
<g id="node31" class="node">
<title>nid&#45;22&#45;ampin&#45;27</title>
<polygon fill="none" stroke="#c8c8c8" points="933.79,-571 811.11,-594 811.11,-548 933.79,-571"/>
<text text-anchor="middle" x="852" y="-567.3" font-family="Times,serif" font-size="14.00">3 (27)</text>
</g>
<!-- nid&#45;1b&#45;out&#45;&gt;nid&#45;22&#45;ampin&#45;27 -->
<g id="edge25" class="edge">
<title>nid&#45;1b&#45;out&#45;&gt;nid&#45;22&#45;ampin&#45;27</title>
<path fill="none" stroke="#333333" d="M534.04,-831.97C543.79,-826.46 553.41,-820.43 562.11,-814 665.26,-737.8 655.55,-677.36 762.11,-606 773.97,-598.05 787.91,-591.49 801.19,-586.29"/>
<polygon fill="#333333" stroke="#333333" points="802.56,-589.51 810.7,-582.73 800.11,-582.95 802.56,-589.51"/>
</g>
<!-- nid&#45;23&#45;ampin&#45;27 -->
<g id="node36" class="node">
<title>nid&#45;23&#45;ampin&#45;27</title>
<polygon fill="none" stroke="#c8c8c8" points="933.79,-897 811.11,-920 811.11,-874 933.79,-897"/>
<text text-anchor="middle" x="852" y="-893.3" font-family="Times,serif" font-size="14.00">3 (27)</text>
</g>
<!-- nid&#45;1b&#45;out&#45;&gt;nid&#45;23&#45;ampin&#45;27 -->
<g id="edge36" class="edge">
<title>nid&#45;1b&#45;out&#45;&gt;nid&#45;23&#45;ampin&#45;27</title>
<path fill="none" stroke="#333333" d="M538.89,-872.31C617.27,-878.51 734.48,-887.78 800.71,-893.02"/>
<polygon fill="#333333" stroke="#333333" points="800.64,-896.53 810.88,-893.83 801.19,-889.55 800.64,-896.53"/>
</g>
<!-- nid&#45;1b&#45;ampin -->
<g id="node24" class="node">
<title>nid&#45;1b&#45;ampin</title>
<polygon fill="none" stroke="#0000ff" points="108.05,-866 67.55,-884 67.55,-848 108.05,-866"/>
</g>
<!-- nid&#45;1b&#45;ampin&#45;&gt;nid&#45;1b&#45;out -->
<g id="edge11" class="edge">
<title>nid&#45;1b&#45;ampin&#45;&gt;nid&#45;1b&#45;out</title>
<path fill="none" stroke="#0000ff" d="M108.13,-866C161.96,-866 287.44,-866 372.31,-866"/>
<polygon fill="#0000ff" stroke="#0000ff" points="372.33,-867.75 377.33,-866 372.33,-864.25 372.33,-867.75"/>
</g>
<!-- nid&#45;1d&#45;out -->
<g id="node25" class="node">
<title>nid&#45;1d&#45;out</title>
<polygon fill="none" stroke="green" points="554.11,-802 362.11,-802 362.11,-734 554.11,-734 554.11,-802"/>
<text text-anchor="middle" x="458.11" y="-786.8" font-family="Times,serif" font-size="14.00">29</text>
<text text-anchor="middle" x="458.11" y="-771.8" font-family="Times,serif" font-size="14.00">[N/A] Modem Hand at Ext N/A</text>
<text text-anchor="middle" x="458.11" y="-756.8" font-family="Times,serif" font-size="14.00">Mono</text>
<text text-anchor="middle" x="458.11" y="-741.8" font-family="Times,serif" font-size="14.00">IN</text>
</g>
<!-- nid&#45;22&#45;ampin&#45;29 -->
<g id="node32" class="node">
<title>nid&#45;22&#45;ampin&#45;29</title>
<polygon fill="none" stroke="#c8c8c8" points="933.79,-507 811.11,-530 811.11,-484 933.79,-507"/>
<text text-anchor="middle" x="852" y="-503.3" font-family="Times,serif" font-size="14.00">4 (29)</text>
</g>
<!-- nid&#45;1d&#45;out&#45;&gt;nid&#45;22&#45;ampin&#45;29 -->
<g id="edge26" class="edge">
<title>nid&#45;1d&#45;out&#45;&gt;nid&#45;22&#45;ampin&#45;29</title>
<path fill="none" stroke="#333333" d="M525.44,-733.93C537.9,-726.79 550.62,-719 562.11,-711 658.35,-644.04 660.83,-598.06 762.11,-539 774.08,-532.02 787.82,-526.16 800.87,-521.45"/>
<polygon fill="#333333" stroke="#333333" points="802.37,-524.64 810.68,-518.06 800.08,-518.02 802.37,-524.64"/>
</g>
<!-- nid&#45;23&#45;ampin&#45;29 -->
<g id="node37" class="node">
<title>nid&#45;23&#45;ampin&#45;29</title>
<polygon fill="none" stroke="#c8c8c8" points="933.79,-833 811.11,-856 811.11,-810 933.79,-833"/>
<text text-anchor="middle" x="852" y="-829.3" font-family="Times,serif" font-size="14.00">4 (29)</text>
</g>
<!-- nid&#45;1d&#45;out&#45;&gt;nid&#45;23&#45;ampin&#45;29 -->
<g id="edge37" class="edge">
<title>nid&#45;1d&#45;out&#45;&gt;nid&#45;23&#45;ampin&#45;29</title>
<path fill="none" stroke="#333333" d="M554.22,-783.78C631.91,-796.66 738.66,-814.37 800.69,-824.66"/>
<polygon fill="#333333" stroke="#333333" points="800.19,-828.12 810.62,-826.3 801.33,-821.21 800.19,-828.12"/>
</g>
<!-- nid&#45;22&#45;ampin&#45;24&#45;&gt;nid&#45;22 -->
<g id="edge17" class="edge">
<title>nid&#45;22&#45;ampin&#45;24&#45;&gt;nid&#45;22</title>
<path fill="none" stroke="#c8c8c8" d="M933.85,-443C999.79,-443 1090.57,-443 1144.63,-443"/>
<polygon fill="#c8c8c8" stroke="#c8c8c8" points="1144.75,-444.75 1149.75,-443 1144.75,-441.25 1144.75,-444.75"/>
</g>
<!-- nid&#45;22&#45;ampin&#45;25&#45;&gt;nid&#45;22 -->
<g id="edge18" class="edge">
<title>nid&#45;22&#45;ampin&#45;25&#45;&gt;nid&#45;22</title>
<path fill="none" stroke="#c8c8c8" d="M893.38,-386.66C958.02,-398.91 1084.05,-422.81 1149.25,-435.17"/>
<polygon fill="#c8c8c8" stroke="#c8c8c8" points="1148.98,-436.9 1154.22,-436.11 1149.64,-433.46 1148.98,-436.9"/>
</g>
<!-- nid&#45;22&#45;ampin&#45;26&#45;&gt;nid&#45;22 -->
<g id="edge19" class="edge">
<title>nid&#45;22&#45;ampin&#45;26&#45;&gt;nid&#45;22</title>
<path fill="none" stroke="#c8c8c8" d="M880.96,-324.94C898.4,-331.18 921.3,-339.45 941.5,-347 1016.83,-375.13 1104.47,-409.24 1153.11,-428.29"/>
<polygon fill="#c8c8c8" stroke="#c8c8c8" points="1152.69,-430.01 1157.98,-430.2 1153.97,-426.75 1152.69,-430.01"/>
</g>
<!-- nid&#45;22&#45;ampin&#45;27&#45;&gt;nid&#45;22 -->
<g id="edge20" class="edge">
<title>nid&#45;22&#45;ampin&#45;27&#45;&gt;nid&#45;22</title>
<path fill="none" stroke="#c8c8c8" d="M880.96,-561.06C898.4,-554.82 921.3,-546.55 941.5,-539 1016.83,-510.87 1104.47,-476.76 1153.11,-457.71"/>
<polygon fill="#c8c8c8" stroke="#c8c8c8" points="1153.97,-459.25 1157.98,-455.8 1152.69,-455.99 1153.97,-459.25"/>
</g>
<!-- nid&#45;22&#45;ampin&#45;29&#45;&gt;nid&#45;22 -->
<g id="edge21" class="edge">
<title>nid&#45;22&#45;ampin&#45;29&#45;&gt;nid&#45;22</title>
<path fill="none" stroke="#c8c8c8" d="M893.38,-499.34C958.02,-487.09 1084.05,-463.19 1149.25,-450.83"/>
<polygon fill="#c8c8c8" stroke="#c8c8c8" points="1149.64,-452.54 1154.22,-449.89 1148.98,-449.1 1149.64,-452.54"/>
</g>
<!-- nid&#45;23&#45;ampin&#45;24&#45;&gt;nid&#45;23 -->
<g id="edge27" class="edge">
<title>nid&#45;23&#45;ampin&#45;24&#45;&gt;nid&#45;23</title>
<path fill="none" stroke="#c8c8c8" d="M906.86,-774.11C973.48,-780.42 1085.59,-791.05 1147.03,-796.88"/>
<polygon fill="#c8c8c8" stroke="#c8c8c8" points="1146.95,-798.63 1152.09,-797.36 1147.28,-795.14 1146.95,-798.63"/>
</g>
<!-- nid&#45;23&#45;ampin&#45;25&#45;&gt;nid&#45;23 -->
<g id="edge28" class="edge">
<title>nid&#45;23&#45;ampin&#45;25&#45;&gt;nid&#45;23</title>
<path fill="none" stroke="#0000ff" d="M885.36,-714.2C947.6,-731.91 1083.75,-770.63 1151.14,-789.8"/>
<polygon fill="#0000ff" stroke="#0000ff" points="1150.98,-791.57 1156.27,-791.25 1151.94,-788.2 1150.98,-791.57"/>
</g>
<!-- nid&#45;23&#45;ampin&#45;26&#45;&gt;nid&#45;23 -->
<g id="edge29" class="edge">
<title>nid&#45;23&#45;ampin&#45;26&#45;&gt;nid&#45;23</title>
<path fill="none" stroke="#c8c8c8" d="M882.47,-650.6C899.86,-656.52 922.18,-664.58 941.5,-673 1020.29,-707.33 1109.03,-755.29 1156.4,-781.68"/>
<polygon fill="#c8c8c8" stroke="#c8c8c8" points="1155.63,-783.26 1160.85,-784.17 1157.34,-780.2 1155.63,-783.26"/>
</g>
<!-- nid&#45;23&#45;ampin&#45;27&#45;&gt;nid&#45;23 -->
<g id="edge30" class="edge">
<title>nid&#45;23&#45;ampin&#45;27&#45;&gt;nid&#45;23</title>
<path fill="none" stroke="#c8c8c8" d="M885.36,-887.8C947.6,-870.09 1083.75,-831.37 1151.14,-812.2"/>
<polygon fill="#c8c8c8" stroke="#c8c8c8" points="1151.94,-813.8 1156.27,-810.75 1150.98,-810.43 1151.94,-813.8"/>
</g>
<!-- nid&#45;23&#45;ampin&#45;29&#45;&gt;nid&#45;23 -->
<g id="edge31" class="edge">
<title>nid&#45;23&#45;ampin&#45;29&#45;&gt;nid&#45;23</title>
<path fill="none" stroke="#c8c8c8" d="M906.86,-827.89C973.48,-821.58 1085.59,-810.95 1147.03,-805.12"/>
<polygon fill="#c8c8c8" stroke="#c8c8c8" points="1147.28,-806.86 1152.09,-804.64 1146.95,-803.37 1147.28,-806.86"/>
</g>
<!-- nid&#45;23&#45;ampin&#45;18&#45;&gt;nid&#45;23 -->
<g id="edge32" class="edge">
<title>nid&#45;23&#45;ampin&#45;18&#45;&gt;nid&#45;23</title>
<path fill="none" stroke="#c8c8c8" d="M882.87,-951.26C900.2,-945.35 922.33,-937.35 941.5,-929 1020.29,-894.67 1109.03,-846.71 1156.4,-820.32"/>
<polygon fill="#c8c8c8" stroke="#c8c8c8" points="1157.34,-821.8 1160.85,-817.83 1155.63,-818.74 1157.34,-821.8"/>
</g>
</g>
</svg>
