<?xml version="1.0" encoding="UTF-8" standalone="no"?>
<!DOCTYPE svg PUBLIC "-//W3C//DTD SVG 1.1//EN"
 "http://www.w3.org/Graphics/SVG/1.1/DTD/svg11.dtd">
<!-- Generated by graphviz version 3.0.0 (20220226.1711)
 -->
<!-- Pages: 1 -->
<svg width="2188pt" height="1146pt"
 viewBox="0.00 0.00 2188.19 1146.27" xmlns="http://www.w3.org/2000/svg" xmlns:xlink="http://www.w3.org/1999/xlink">
<g id="graph0" class="graph" transform="scale(1 1) rotate(0) translate(4 1142.27)">
<polygon fill="white" stroke="transparent" points="-4,4 -4,-1142.27 2184.19,-1142.27 2184.19,4 -4,4"/>
<g id="clust1" class="cluster">
<title>cluster&#45;nid&#45;0a&#45;in</title>
<polygon fill="none" stroke="#cccccc" points="709.98,-711.29 709.98,-795.29 886.98,-795.29 886.98,-711.29 709.98,-711.29"/>
</g>
<g id="clust2" class="cluster">
<title>cluster&#45;nid&#45;0a&#45;out</title>
<polygon fill="none" stroke="#cccccc" points="34.74,-155.29 34.74,-239.29 508.48,-239.29 508.48,-155.29 34.74,-155.29"/>
</g>
<g id="clust3" class="cluster">
<title>cluster&#45;nid&#45;0b&#45;in</title>
<polygon fill="none" stroke="#cccccc" points="708.48,-619.29 708.48,-703.29 888.48,-703.29 888.48,-619.29 708.48,-619.29"/>
</g>
<g id="clust5" class="cluster">
<title>cluster&#45;nid&#45;0c&#45;in</title>
<polygon fill="none" stroke="#cccccc" points="717.48,-987.29 717.48,-1071.29 879.48,-1071.29 879.48,-987.29 717.48,-987.29"/>
</g>
<g id="clust6" class="cluster">
<title>cluster&#45;nid&#45;0c&#45;out</title>
<polygon fill="none" stroke="#cccccc" points="34.74,-63.29 34.74,-147.29 500.98,-147.29 500.98,-63.29 34.74,-63.29"/>
</g>
<g id="clust7" class="cluster">
<title>cluster&#45;nid&#45;0d&#45;in</title>
<polygon fill="none" stroke="#cccccc" points="708.98,-895.29 708.98,-979.29 887.98,-979.29 887.98,-895.29 708.98,-895.29"/>
</g>
<g id="clust10" class="cluster">
<title>cluster&#45;nid&#45;0f&#45;in</title>
<polygon fill="none" stroke="#cccccc" points="717.48,-803.29 717.48,-887.29 879.48,-887.29 879.48,-803.29 717.48,-803.29"/>
</g>
<g id="clust11" class="cluster">
<title>cluster&#45;nid&#45;0f&#45;out</title>
<polygon fill="none" stroke="#cccccc" points="34.74,-247.29 34.74,-331.29 500.98,-331.29 500.98,-247.29 34.74,-247.29"/>
</g>
<g id="clust14" class="cluster">
<title>cluster&#45;nid&#45;11&#45;out</title>
<polygon fill="none" stroke="#cccccc" points="1088.48,-93.29 1088.48,-177.29 1240.48,-177.29 1240.48,-93.29 1088.48,-93.29"/>
</g>
<g id="clust16" class="cluster">
<title>cluster&#45;nid&#45;13</title>
<polygon fill="none" stroke="#cccccc" points="8,-721.29 8,-791.29 454.98,-791.29 454.98,-721.29 8,-721.29"/>
</g>
<g id="clust17" class="cluster">
<title>cluster&#45;nid&#45;14</title>
<polygon fill="none" stroke="#cccccc" points="8,-803.29 8,-873.29 454.98,-873.29 454.98,-803.29 8,-803.29"/>
</g>
<g id="clust18" class="cluster">
<title>cluster&#45;nid&#45;15</title>
<polygon fill="none" stroke="#cccccc" points="2084.07,-38.29 2084.07,-108.29 2172.19,-108.29 2172.19,-38.29 2084.07,-38.29"/>
</g>
<g id="clust19" class="cluster">
<title>cluster&#45;nid&#45;16</title>
<polygon fill="none" stroke="#cccccc" points="2084.07,-200.29 2084.07,-270.29 2172.19,-270.29 2172.19,-200.29 2084.07,-200.29"/>
</g>
<g id="clust20" class="cluster">
<title>cluster&#45;nid&#45;17</title>
<polygon fill="none" stroke="#cccccc" points="1440.48,-27.29 1440.48,-119.29 1884.07,-119.29 1884.07,-27.29 1440.48,-27.29"/>
</g>
<g id="clust21" class="cluster">
<title>cluster&#45;nid&#45;18</title>
<polygon fill="none" stroke="#cccccc" points="1440.48,-189.29 1440.48,-281.29 1884.07,-281.29 1884.07,-189.29 1440.48,-189.29"/>
</g>
<g id="clust24" class="cluster">
<title>cluster&#45;nid&#45;1b</title>
<polygon fill="none" stroke="#cccccc" points="708.59,-293.29 708.59,-611.29 1214.12,-611.29 1214.12,-293.29 708.59,-293.29"/>
</g>
<g id="clust25" class="cluster">
<title>cluster&#45;nid&#45;1c</title>
<polygon fill="none" stroke="#cccccc" points="8.87,-882.29 8.87,-974.29 454.98,-974.29 454.98,-882.29 8.87,-882.29"/>
</g>
<!-- nid&#45;0a&#45;in -->
<g id="node1" class="node">
<title>nid&#45;0a&#45;in</title>
<polygon fill="none" stroke="green" points="878.98,-787.29 717.98,-787.29 717.98,-719.29 878.98,-719.29 878.98,-787.29"/>
<text text-anchor="middle" x="798.48" y="-772.09" font-family="Times,serif" font-size="14.00">0x0a</text>
<text text-anchor="middle" x="798.48" y="-757.09" font-family="Times,serif" font-size="14.00">[Jack] Mic at Ext Right</text>
<text text-anchor="middle" x="798.48" y="-742.09" font-family="Times,serif" font-size="14.00">Stereo</text>
<text text-anchor="middle" x="798.48" y="-727.09" font-family="Times,serif" font-size="14.00">IN OUT HP EAPD Detect</text>
</g>
<!-- nid&#45;0a&#45;out -->
<g id="node2" class="node">
<title>nid&#45;0a&#45;out</title>
<polygon fill="none" stroke="green" points="500.48,-231.29 339.48,-231.29 339.48,-163.29 500.48,-163.29 500.48,-231.29"/>
<text text-anchor="middle" x="419.98" y="-216.09" font-family="Times,serif" font-size="14.00">0x0a</text>
<text text-anchor="middle" x="419.98" y="-201.09" font-family="Times,serif" font-size="14.00">[Jack] Mic at Ext Right</text>
<text text-anchor="middle" x="419.98" y="-186.09" font-family="Times,serif" font-size="14.00">Stereo</text>
<text text-anchor="middle" x="419.98" y="-171.09" font-family="Times,serif" font-size="14.00">IN OUT HP EAPD Detect</text>
</g>
<!-- nid&#45;17 -->
<g id="node22" class="node">
<title>nid&#45;17</title>
<polygon fill="none" stroke="black" points="1605.86,-111.29 1480.85,-111.29 1448.69,-35.29 1573.7,-35.29 1605.86,-111.29"/>
<text text-anchor="middle" x="1527.27" y="-77.09" font-family="Times,serif" font-size="14.00">0x17</text>
<text text-anchor="middle" x="1527.27" y="-62.09" font-family="Times,serif" font-size="14.00">Stereo R/L</text>
</g>
<!-- nid&#45;0a&#45;out&#45;&gt;nid&#45;17 -->
<g id="edge25" class="edge">
<title>nid&#45;0a&#45;out&#45;&gt;nid&#45;17</title>
<path fill="none" stroke="gray" stroke-dasharray="5,2" d="M500.56,-175.34C624.86,-142.3 873.2,-81.31 1088.48,-59.29 1155.69,-52.42 1172.94,-57.64 1240.48,-59.29 1312.74,-61.06 1395.19,-65.34 1452.9,-68.71"/>
<polygon fill="gray" stroke="gray" points="1452.83,-72.21 1463.02,-69.31 1453.25,-65.22 1452.83,-72.21"/>
</g>
<!-- nid&#45;18 -->
<g id="node24" class="node">
<title>nid&#45;18</title>
<polygon fill="none" stroke="black" points="1605.86,-273.29 1480.85,-273.29 1448.69,-197.29 1573.7,-197.29 1605.86,-273.29"/>
<text text-anchor="middle" x="1527.27" y="-239.09" font-family="Times,serif" font-size="14.00">0x18</text>
<text text-anchor="middle" x="1527.27" y="-224.09" font-family="Times,serif" font-size="14.00">Stereo R/L</text>
</g>
<!-- nid&#45;0a&#45;out&#45;&gt;nid&#45;18 -->
<g id="edge31" class="edge">
<title>nid&#45;0a&#45;out&#45;&gt;nid&#45;18</title>
<path fill="none" stroke="gray" stroke-dasharray="5,2" d="M500.91,-200.04C707.33,-207.14 1255.86,-226 1453.78,-232.8"/>
<polygon fill="gray" stroke="gray" points="1453.67,-236.3 1463.78,-233.15 1453.91,-229.3 1453.67,-236.3"/>
</g>
<!-- nid&#45;1b&#45;ampin&#45;10 -->
<g id="node27" class="node">
<title>nid&#45;1b&#45;ampin&#45;10</title>
<polygon fill="none" stroke="#c8c8c8" points="879.17,-388.29 758.14,-411.29 758.14,-365.29 879.17,-388.29"/>
<text text-anchor="middle" x="798.48" y="-384.59" font-family="Times,serif" font-size="14.00">2 (0x0a)</text>
</g>
<!-- nid&#45;0a&#45;out&#45;&gt;nid&#45;1b&#45;ampin&#45;10 -->
<g id="edge42" class="edge">
<title>nid&#45;0a&#45;out&#45;&gt;nid&#45;1b&#45;ampin&#45;10</title>
<path fill="none" stroke="#333333" d="M486.55,-231.49C493.97,-235.44 501.4,-239.43 508.48,-243.29 598.12,-292.16 615.67,-313.76 708.48,-356.29 721.09,-362.07 735.07,-367.52 748.14,-372.23"/>
<polygon fill="#333333" stroke="#333333" points="747.32,-375.65 757.92,-375.68 749.65,-369.05 747.32,-375.65"/>
</g>
<!-- nid&#45;0a&#45;ampin -->
<g id="node3" class="node">
<title>nid&#45;0a&#45;ampin</title>
<polygon fill="none" stroke="#0000ff" points="96.74,-197.29 56.24,-215.29 56.24,-179.29 96.74,-197.29"/>
</g>
<!-- nid&#45;0a&#45;ampin&#45;&gt;nid&#45;0a&#45;out -->
<g id="edge1" class="edge">
<title>nid&#45;0a&#45;ampin&#45;&gt;nid&#45;0a&#45;out</title>
<path fill="none" stroke="#0000ff" d="M96.91,-197.29C146.6,-197.29 256.54,-197.29 334.1,-197.29"/>
<polygon fill="#0000ff" stroke="#0000ff" points="334.16,-199.04 339.16,-197.29 334.16,-195.54 334.16,-199.04"/>
</g>
<!-- nid&#45;13&#45;ampout -->
<g id="node4" class="node">
<title>nid&#45;13&#45;ampout</title>
<polygon fill="none" stroke="#0000ff" points="446.98,-756.29 406.48,-774.29 406.48,-738.29 446.98,-756.29"/>
</g>
<!-- nid&#45;13&#45;ampout&#45;&gt;nid&#45;0a&#45;in -->
<g id="edge2" class="edge">
<title>nid&#45;13&#45;ampout&#45;&gt;nid&#45;0a&#45;in</title>
<path fill="none" stroke="#333333" d="M446.56,-756.09C499.29,-755.67 622.24,-754.69 707.63,-754.01"/>
<polygon fill="#333333" stroke="#333333" points="707.88,-757.51 717.85,-753.93 707.82,-750.51 707.88,-757.51"/>
</g>
<!-- nid&#45;0b&#45;in -->
<g id="node7" class="node">
<title>nid&#45;0b&#45;in</title>
<polygon fill="none" stroke="green" points="880.48,-695.29 716.48,-695.29 716.48,-627.29 880.48,-627.29 880.48,-695.29"/>
<text text-anchor="middle" x="798.48" y="-680.09" font-family="Times,serif" font-size="14.00">0x0b</text>
<text text-anchor="middle" x="798.48" y="-665.09" font-family="Times,serif" font-size="14.00">[Jack] HP Out at Ext Right</text>
<text text-anchor="middle" x="798.48" y="-650.09" font-family="Times,serif" font-size="14.00">Stereo</text>
<text text-anchor="middle" x="798.48" y="-635.09" font-family="Times,serif" font-size="14.00">OUT HP EAPD Detect</text>
</g>
<!-- nid&#45;13&#45;ampout&#45;&gt;nid&#45;0b&#45;in -->
<g id="edge5" class="edge">
<title>nid&#45;13&#45;ampout&#45;&gt;nid&#45;0b&#45;in</title>
<path fill="none" stroke="gray" stroke-dasharray="5,2" d="M437.64,-752.09C483.78,-740.45 615.76,-707.15 706.37,-684.28"/>
<polygon fill="gray" stroke="gray" points="707.26,-687.67 716.1,-681.83 705.55,-680.88 707.26,-687.67"/>
</g>
<!-- nid&#45;0c&#45;in -->
<g id="node8" class="node">
<title>nid&#45;0c&#45;in</title>
<polygon fill="none" stroke="green" points="871.48,-1063.29 725.48,-1063.29 725.48,-995.29 871.48,-995.29 871.48,-1063.29"/>
<text text-anchor="middle" x="798.48" y="-1048.09" font-family="Times,serif" font-size="14.00">0x0c</text>
<text text-anchor="middle" x="798.48" y="-1033.09" font-family="Times,serif" font-size="14.00">[N/A] Other at Ext N/A</text>
<text text-anchor="middle" x="798.48" y="-1018.09" font-family="Times,serif" font-size="14.00">Stereo</text>
<text text-anchor="middle" x="798.48" y="-1003.09" font-family="Times,serif" font-size="14.00">IN OUT EAPD Detect</text>
</g>
<!-- nid&#45;13&#45;ampout&#45;&gt;nid&#45;0c&#45;in -->
<g id="edge9" class="edge">
<title>nid&#45;13&#45;ampout&#45;&gt;nid&#45;0c&#45;in</title>
<path fill="none" stroke="#333333" d="M434.99,-761.71C452.85,-768.93 484.32,-782.75 508.48,-799.29 608.15,-867.52 609.51,-914.06 708.48,-983.29 711.68,-985.53 714.99,-987.73 718.39,-989.87"/>
<polygon fill="#333333" stroke="#333333" points="716.6,-992.88 726.96,-995.1 720.25,-986.91 716.6,-992.88"/>
</g>
<!-- nid&#45;0d&#45;in -->
<g id="node11" class="node">
<title>nid&#45;0d&#45;in</title>
<polygon fill="none" stroke="green" points="879.98,-971.29 716.98,-971.29 716.98,-903.29 879.98,-903.29 879.98,-971.29"/>
<text text-anchor="middle" x="798.48" y="-956.09" font-family="Times,serif" font-size="14.00">0x0d</text>
<text text-anchor="middle" x="798.48" y="-941.09" font-family="Times,serif" font-size="14.00">[Fixed] Speaker at Int N/A</text>
<text text-anchor="middle" x="798.48" y="-926.09" font-family="Times,serif" font-size="14.00">Stereo</text>
<text text-anchor="middle" x="798.48" y="-911.09" font-family="Times,serif" font-size="14.00">OUT EAPD Balanced</text>
</g>
<!-- nid&#45;13&#45;ampout&#45;&gt;nid&#45;0d&#45;in -->
<g id="edge12" class="edge">
<title>nid&#45;13&#45;ampout&#45;&gt;nid&#45;0d&#45;in</title>
<path fill="none" stroke="#333333" d="M433.51,-762.32C477.03,-783.24 624.14,-853.96 717.48,-898.83"/>
<polygon fill="#333333" stroke="#333333" points="716.09,-902.05 726.62,-903.23 719.12,-895.74 716.09,-902.05"/>
</g>
<!-- nid&#45;0f&#45;in -->
<g id="node12" class="node">
<title>nid&#45;0f&#45;in</title>
<polygon fill="none" stroke="green" points="871.48,-879.29 725.48,-879.29 725.48,-811.29 871.48,-811.29 871.48,-879.29"/>
<text text-anchor="middle" x="798.48" y="-864.09" font-family="Times,serif" font-size="14.00">0x0f</text>
<text text-anchor="middle" x="798.48" y="-849.09" font-family="Times,serif" font-size="14.00">[N/A] Other at Ext N/A</text>
<text text-anchor="middle" x="798.48" y="-834.09" font-family="Times,serif" font-size="14.00">Stereo</text>
<text text-anchor="middle" x="798.48" y="-819.09" font-family="Times,serif" font-size="14.00">IN OUT EAPD Detect</text>
</g>
<!-- nid&#45;13&#45;ampout&#45;&gt;nid&#45;0f&#45;in -->
<g id="edge16" class="edge">
<title>nid&#45;13&#45;ampout&#45;&gt;nid&#45;0f&#45;in</title>
<path fill="none" stroke="#333333" d="M438.14,-760.35C486.25,-771.72 624.85,-804.49 715.18,-825.84"/>
<polygon fill="#333333" stroke="#333333" points="714.59,-829.3 725.13,-828.19 716.2,-822.48 714.59,-829.3"/>
</g>
<!-- nid&#45;1b&#45;ampin&#45;19 -->
<g id="node25" class="node">
<title>nid&#45;1b&#45;ampin&#45;19</title>
<polygon fill="none" stroke="#c8c8c8" points="880.27,-516.29 757.59,-539.29 757.59,-493.29 880.27,-516.29"/>
<text text-anchor="middle" x="798.48" y="-512.59" font-family="Times,serif" font-size="14.00">0 (0x13)</text>
</g>
<!-- nid&#45;13&#45;ampout&#45;&gt;nid&#45;1b&#45;ampin&#45;19 -->
<g id="edge40" class="edge">
<title>nid&#45;13&#45;ampout&#45;&gt;nid&#45;1b&#45;ampin&#45;19</title>
<path fill="none" stroke="#333333" d="M429.78,-748.46C463.59,-718.72 589.17,-611.28 708.48,-548.29 720.75,-541.82 734.61,-536.13 747.67,-531.42"/>
<polygon fill="#333333" stroke="#333333" points="749.18,-534.6 757.47,-528.01 746.88,-527.99 749.18,-534.6"/>
</g>
<!-- nid&#45;14&#45;ampout -->
<g id="node5" class="node">
<title>nid&#45;14&#45;ampout</title>
<polygon fill="none" stroke="#0000ff" points="446.98,-838.29 406.48,-856.29 406.48,-820.29 446.98,-838.29"/>
</g>
<!-- nid&#45;14&#45;ampout&#45;&gt;nid&#45;0a&#45;in -->
<g id="edge3" class="edge">
<title>nid&#45;14&#45;ampout&#45;&gt;nid&#45;0a&#45;in</title>
<path fill="none" stroke="gray" stroke-dasharray="5,2" d="M438.63,-834.31C485.93,-823.63 617.99,-793.82 708,-773.49"/>
<polygon fill="gray" stroke="gray" points="708.96,-776.87 717.94,-771.25 707.42,-770.04 708.96,-776.87"/>
</g>
<!-- nid&#45;14&#45;ampout&#45;&gt;nid&#45;0b&#45;in -->
<g id="edge6" class="edge">
<title>nid&#45;14&#45;ampout&#45;&gt;nid&#45;0b&#45;in</title>
<path fill="none" stroke="#333333" d="M433.94,-832.2C477.74,-811.61 622.7,-743.46 715.8,-699.69"/>
<polygon fill="#333333" stroke="#333333" points="717.36,-702.83 724.92,-695.41 714.38,-696.49 717.36,-702.83"/>
</g>
<!-- nid&#45;14&#45;ampout&#45;&gt;nid&#45;0c&#45;in -->
<g id="edge10" class="edge">
<title>nid&#45;14&#45;ampout&#45;&gt;nid&#45;0c&#45;in</title>
<path fill="none" stroke="gray" stroke-dasharray="5,2" d="M434.13,-844.04C451.34,-851.61 482.39,-865.49 508.48,-878.29 598.61,-922.51 619.44,-936.91 708.48,-983.29 712.99,-985.64 717.64,-988.06 722.32,-990.49"/>
<polygon fill="gray" stroke="gray" points="720.87,-993.68 731.36,-995.18 724.09,-987.47 720.87,-993.68"/>
</g>
<!-- nid&#45;14&#45;ampout&#45;&gt;nid&#45;0d&#45;in -->
<g id="edge13" class="edge">
<title>nid&#45;14&#45;ampout&#45;&gt;nid&#45;0d&#45;in</title>
<path fill="none" stroke="gray" stroke-dasharray="5,2" d="M437.64,-842.68C483.92,-854.84 616.54,-889.72 707.18,-913.55"/>
<polygon fill="gray" stroke="gray" points="706.35,-916.95 716.91,-916.11 708.13,-910.18 706.35,-916.95"/>
</g>
<!-- nid&#45;14&#45;ampout&#45;&gt;nid&#45;0f&#45;in -->
<g id="edge17" class="edge">
<title>nid&#45;14&#45;ampout&#45;&gt;nid&#45;0f&#45;in</title>
<path fill="none" stroke="gray" stroke-dasharray="5,2" d="M445.98,-838.76C499.87,-839.76 629.08,-842.16 714.92,-843.76"/>
<polygon fill="gray" stroke="gray" points="715.1,-847.26 725.16,-843.95 715.23,-840.26 715.1,-847.26"/>
</g>
<!-- nid&#45;1b&#45;ampin&#45;20 -->
<g id="node26" class="node">
<title>nid&#45;1b&#45;ampin&#45;20</title>
<polygon fill="none" stroke="#c8c8c8" points="880.27,-580.29 757.59,-603.29 757.59,-557.29 880.27,-580.29"/>
<text text-anchor="middle" x="798.48" y="-576.59" font-family="Times,serif" font-size="14.00">1 (0x14)</text>
</g>
<!-- nid&#45;14&#45;ampout&#45;&gt;nid&#45;1b&#45;ampin&#45;20 -->
<g id="edge41" class="edge">
<title>nid&#45;14&#45;ampout&#45;&gt;nid&#45;1b&#45;ampin&#45;20</title>
<path fill="none" stroke="#333333" d="M434.96,-832.84C452.79,-825.57 484.23,-811.7 508.48,-795.29 607.53,-728.28 606.76,-678.18 708.48,-615.29 720.64,-607.78 734.69,-601.36 747.98,-596.15"/>
<polygon fill="#333333" stroke="#333333" points="749.36,-599.37 757.48,-592.57 746.89,-592.81 749.36,-599.37"/>
</g>
<!-- nid&#45;1c&#45;ampout -->
<g id="node6" class="node">
<title>nid&#45;1c&#45;ampout</title>
<polygon fill="none" stroke="#c8c8c8" points="446.98,-928.29 406.48,-946.29 406.48,-910.29 446.98,-928.29"/>
</g>
<!-- nid&#45;1c&#45;ampout&#45;&gt;nid&#45;0a&#45;in -->
<g id="edge4" class="edge">
<title>nid&#45;1c&#45;ampout&#45;&gt;nid&#45;0a&#45;in</title>
<path fill="none" stroke="gray" stroke-dasharray="5,2" d="M433.94,-922.27C477.61,-901.97 621.87,-834.92 715,-791.63"/>
<polygon fill="gray" stroke="gray" points="716.53,-794.78 724.12,-787.39 713.58,-788.43 716.53,-794.78"/>
</g>
<!-- nid&#45;1c&#45;ampout&#45;&gt;nid&#45;0b&#45;in -->
<g id="edge7" class="edge">
<title>nid&#45;1c&#45;ampout&#45;&gt;nid&#45;0b&#45;in</title>
<path fill="none" stroke="gray" stroke-dasharray="5,2" d="M433.29,-922.01C450.61,-912.97 482.94,-895.38 508.48,-877.29 603.69,-809.88 611.59,-772.27 708.48,-707.29 711.8,-705.07 715.24,-702.87 718.75,-700.72"/>
<polygon fill="gray" stroke="gray" points="720.79,-703.57 727.6,-695.46 717.22,-697.56 720.79,-703.57"/>
</g>
<!-- nid&#45;1c&#45;ampout&#45;&gt;nid&#45;0c&#45;in -->
<g id="edge11" class="edge">
<title>nid&#45;1c&#45;ampout&#45;&gt;nid&#45;0c&#45;in</title>
<path fill="none" stroke="gray" stroke-dasharray="5,2" d="M437.64,-932.76C485.36,-945.56 624.89,-982.99 715.52,-1007.31"/>
<polygon fill="gray" stroke="gray" points="714.66,-1010.7 725.23,-1009.91 716.48,-1003.94 714.66,-1010.7"/>
</g>
<!-- nid&#45;1c&#45;ampout&#45;&gt;nid&#45;0d&#45;in -->
<g id="edge14" class="edge">
<title>nid&#45;1c&#45;ampout&#45;&gt;nid&#45;0d&#45;in</title>
<path fill="none" stroke="gray" stroke-dasharray="5,2" d="M445.68,-928.88C497.77,-930.13 621.12,-933.08 706.96,-935.13"/>
<polygon fill="gray" stroke="gray" points="706.89,-938.63 716.97,-935.37 707.06,-931.63 706.89,-938.63"/>
</g>
<!-- nid&#45;1c&#45;ampout&#45;&gt;nid&#45;0f&#45;in -->
<g id="edge18" class="edge">
<title>nid&#45;1c&#45;ampout&#45;&gt;nid&#45;0f&#45;in</title>
<path fill="none" stroke="gray" stroke-dasharray="5,2" d="M438.63,-924.4C487.26,-913.68 625.49,-883.21 715.5,-863.37"/>
<polygon fill="gray" stroke="gray" points="716.4,-866.75 725.41,-861.18 714.9,-859.92 716.4,-866.75"/>
</g>
<!-- nid&#45;0c&#45;out -->
<g id="node9" class="node">
<title>nid&#45;0c&#45;out</title>
<polygon fill="none" stroke="green" points="492.98,-139.29 346.98,-139.29 346.98,-71.29 492.98,-71.29 492.98,-139.29"/>
<text text-anchor="middle" x="419.98" y="-124.09" font-family="Times,serif" font-size="14.00">0x0c</text>
<text text-anchor="middle" x="419.98" y="-109.09" font-family="Times,serif" font-size="14.00">[N/A] Other at Ext N/A</text>
<text text-anchor="middle" x="419.98" y="-94.09" font-family="Times,serif" font-size="14.00">Stereo</text>
<text text-anchor="middle" x="419.98" y="-79.09" font-family="Times,serif" font-size="14.00">IN OUT EAPD Detect</text>
</g>
<!-- nid&#45;0c&#45;out&#45;&gt;nid&#45;17 -->
<g id="edge26" class="edge">
<title>nid&#45;0c&#45;out&#45;&gt;nid&#45;17</title>
<path fill="none" stroke="gray" stroke-dasharray="5,2" d="M492.98,-78.05C550.38,-57.86 633.33,-32.05 708.48,-21.29 942.54,12.2 1004.99,-0.04 1240.48,-21.29 1311.2,-27.67 1390.58,-42.77 1447.7,-55.06"/>
<polygon fill="gray" stroke="gray" points="1447.22,-58.53 1457.74,-57.24 1448.71,-51.69 1447.22,-58.53"/>
</g>
<!-- nid&#45;0c&#45;out&#45;&gt;nid&#45;18 -->
<g id="edge32" class="edge">
<title>nid&#45;0c&#45;out&#45;&gt;nid&#45;18</title>
<path fill="none" stroke="gray" stroke-dasharray="5,2" d="M493.08,-113.77C692.35,-137.21 1249.2,-202.71 1451.56,-226.51"/>
<polygon fill="gray" stroke="gray" points="1451.17,-229.98 1461.51,-227.68 1451.98,-223.03 1451.17,-229.98"/>
</g>
<!-- nid&#45;1b&#45;ampin&#45;12 -->
<g id="node28" class="node">
<title>nid&#45;1b&#45;ampin&#45;12</title>
<polygon fill="none" stroke="#c8c8c8" points="879.17,-324.29 758.14,-347.29 758.14,-301.29 879.17,-324.29"/>
<text text-anchor="middle" x="798.48" y="-320.59" font-family="Times,serif" font-size="14.00">3 (0x0c)</text>
</g>
<!-- nid&#45;0c&#45;out&#45;&gt;nid&#45;1b&#45;ampin&#45;12 -->
<g id="edge43" class="edge">
<title>nid&#45;0c&#45;out&#45;&gt;nid&#45;1b&#45;ampin&#45;12</title>
<path fill="none" stroke="#333333" d="M486.65,-139.31C494.05,-143.29 501.45,-147.34 508.48,-151.29 596.08,-200.49 696.27,-261.57 752.69,-296.43"/>
<polygon fill="#333333" stroke="#333333" points="751.02,-299.51 761.36,-301.79 754.7,-293.56 751.02,-299.51"/>
</g>
<!-- nid&#45;0c&#45;ampin -->
<g id="node10" class="node">
<title>nid&#45;0c&#45;ampin</title>
<polygon fill="none" stroke="#0000ff" points="96.74,-105.29 56.24,-123.29 56.24,-87.29 96.74,-105.29"/>
</g>
<!-- nid&#45;0c&#45;ampin&#45;&gt;nid&#45;0c&#45;out -->
<g id="edge8" class="edge">
<title>nid&#45;0c&#45;ampin&#45;&gt;nid&#45;0c&#45;out</title>
<path fill="none" stroke="#0000ff" d="M96.91,-105.29C148.22,-105.29 263.79,-105.29 341.6,-105.29"/>
<polygon fill="#0000ff" stroke="#0000ff" points="341.67,-107.04 346.67,-105.29 341.67,-103.54 341.67,-107.04"/>
</g>
<!-- nid&#45;0f&#45;out -->
<g id="node13" class="node">
<title>nid&#45;0f&#45;out</title>
<polygon fill="none" stroke="green" points="492.98,-323.29 346.98,-323.29 346.98,-255.29 492.98,-255.29 492.98,-323.29"/>
<text text-anchor="middle" x="419.98" y="-308.09" font-family="Times,serif" font-size="14.00">0x0f</text>
<text text-anchor="middle" x="419.98" y="-293.09" font-family="Times,serif" font-size="14.00">[N/A] Other at Ext N/A</text>
<text text-anchor="middle" x="419.98" y="-278.09" font-family="Times,serif" font-size="14.00">Stereo</text>
<text text-anchor="middle" x="419.98" y="-263.09" font-family="Times,serif" font-size="14.00">IN OUT EAPD Detect</text>
</g>
<!-- nid&#45;0f&#45;out&#45;&gt;nid&#45;17 -->
<g id="edge27" class="edge">
<title>nid&#45;0f&#45;out&#45;&gt;nid&#45;17</title>
<path fill="none" stroke="gray" stroke-dasharray="5,2" d="M493.13,-261.03C614.03,-215.18 866.18,-126.04 1088.48,-89.29 1215.52,-68.29 1366,-68.07 1453.35,-70.33"/>
<polygon fill="gray" stroke="gray" points="1453.33,-73.83 1463.43,-70.61 1453.53,-66.83 1453.33,-73.83"/>
</g>
<!-- nid&#45;0f&#45;out&#45;&gt;nid&#45;18 -->
<g id="edge33" class="edge">
<title>nid&#45;0f&#45;out&#45;&gt;nid&#45;18</title>
<path fill="none" stroke="gray" stroke-dasharray="5,2" d="M493.08,-285.77C693.78,-275.97 1257.23,-248.44 1455.87,-238.73"/>
<polygon fill="gray" stroke="gray" points="1456.08,-242.23 1465.9,-238.24 1455.74,-235.24 1456.08,-242.23"/>
</g>
<!-- nid&#45;1b&#45;ampin&#45;15 -->
<g id="node29" class="node">
<title>nid&#45;1b&#45;ampin&#45;15</title>
<polygon fill="none" stroke="#c8c8c8" points="877.57,-452.29 758.94,-475.29 758.94,-429.29 877.57,-452.29"/>
<text text-anchor="middle" x="798.48" y="-448.59" font-family="Times,serif" font-size="14.00">4 (0x0f)</text>
</g>
<!-- nid&#45;0f&#45;out&#45;&gt;nid&#45;1b&#45;ampin&#45;15 -->
<g id="edge44" class="edge">
<title>nid&#45;0f&#45;out&#45;&gt;nid&#45;1b&#45;ampin&#45;15</title>
<path fill="none" stroke="#333333" d="M491.46,-323.37C549.23,-350.83 633.41,-389.76 708.48,-420.29 721.58,-425.62 735.93,-430.98 749.22,-435.76"/>
<polygon fill="#333333" stroke="#333333" points="748.07,-439.07 758.67,-439.12 750.42,-432.47 748.07,-439.07"/>
</g>
<!-- nid&#45;0f&#45;ampin -->
<g id="node14" class="node">
<title>nid&#45;0f&#45;ampin</title>
<polygon fill="none" stroke="#0000ff" points="96.74,-289.29 56.24,-307.29 56.24,-271.29 96.74,-289.29"/>
</g>
<!-- nid&#45;0f&#45;ampin&#45;&gt;nid&#45;0f&#45;out -->
<g id="edge15" class="edge">
<title>nid&#45;0f&#45;ampin&#45;&gt;nid&#45;0f&#45;out</title>
<path fill="none" stroke="#0000ff" d="M96.91,-289.29C148.22,-289.29 263.79,-289.29 341.6,-289.29"/>
<polygon fill="#0000ff" stroke="#0000ff" points="341.67,-291.04 346.67,-289.29 341.67,-287.54 341.67,-291.04"/>
</g>
<!-- nid&#45;11&#45;out -->
<g id="node15" class="node">
<title>nid&#45;11&#45;out</title>
<polygon fill="none" stroke="green" points="1232.48,-169.29 1096.48,-169.29 1096.48,-101.29 1232.48,-101.29 1232.48,-169.29"/>
<text text-anchor="middle" x="1164.48" y="-154.09" font-family="Times,serif" font-size="14.00">0x11</text>
<text text-anchor="middle" x="1164.48" y="-139.09" font-family="Times,serif" font-size="14.00">[Both] Mic at Int Top</text>
<text text-anchor="middle" x="1164.48" y="-124.09" font-family="Times,serif" font-size="14.00">Stereo</text>
<text text-anchor="middle" x="1164.48" y="-109.09" font-family="Times,serif" font-size="14.00">IN Detect</text>
</g>
<!-- nid&#45;11&#45;out&#45;&gt;nid&#45;17 -->
<g id="edge28" class="edge">
<title>nid&#45;11&#45;out&#45;&gt;nid&#45;17</title>
<path fill="none" stroke="#333333" d="M1232.5,-123.78C1297.01,-112.69 1394.05,-96.01 1458.74,-84.9"/>
<polygon fill="#333333" stroke="#333333" points="1459.57,-88.31 1468.83,-83.16 1458.38,-81.41 1459.57,-88.31"/>
</g>
<!-- nid&#45;11&#45;out&#45;&gt;nid&#45;18 -->
<g id="edge34" class="edge">
<title>nid&#45;11&#45;out&#45;&gt;nid&#45;18</title>
<path fill="none" stroke="gray" stroke-dasharray="5,2" d="M1232.5,-153.87C1293.17,-170.68 1382.61,-195.48 1446.85,-213.28"/>
<polygon fill="gray" stroke="gray" points="1445.97,-216.67 1456.54,-215.97 1447.84,-209.92 1445.97,-216.67"/>
</g>
<!-- nid&#45;13 -->
<g id="node16" class="node">
<title>nid&#45;13</title>
<ellipse fill="none" stroke="blue" cx="69.74" cy="-756.29" rx="53.98" ry="26.74"/>
<text text-anchor="middle" x="69.74" y="-760.09" font-family="Times,serif" font-size="14.00">0x13</text>
<text text-anchor="middle" x="69.74" y="-745.09" font-family="Times,serif" font-size="14.00">Stereo R/L</text>
</g>
<!-- nid&#45;13&#45;&gt;nid&#45;13&#45;ampout -->
<g id="edge19" class="edge">
<title>nid&#45;13&#45;&gt;nid&#45;13&#45;ampout</title>
<path fill="none" stroke="#0000ff" d="M123.63,-756.29C203.31,-756.29 350.21,-756.29 401.08,-756.29"/>
<polygon fill="#0000ff" stroke="#0000ff" points="401.25,-758.04 406.25,-756.29 401.25,-754.54 401.25,-758.04"/>
</g>
<!-- nid&#45;14 -->
<g id="node17" class="node">
<title>nid&#45;14</title>
<ellipse fill="none" stroke="blue" cx="69.74" cy="-838.29" rx="53.98" ry="26.74"/>
<text text-anchor="middle" x="69.74" y="-842.09" font-family="Times,serif" font-size="14.00">0x14</text>
<text text-anchor="middle" x="69.74" y="-827.09" font-family="Times,serif" font-size="14.00">Stereo R/L</text>
</g>
<!-- nid&#45;14&#45;&gt;nid&#45;14&#45;ampout -->
<g id="edge20" class="edge">
<title>nid&#45;14&#45;&gt;nid&#45;14&#45;ampout</title>
<path fill="none" stroke="#0000ff" d="M123.63,-838.29C203.31,-838.29 350.21,-838.29 401.08,-838.29"/>
<polygon fill="#0000ff" stroke="#0000ff" points="401.25,-840.04 406.25,-838.29 401.25,-836.54 401.25,-840.04"/>
</g>
<!-- nid&#45;15 -->
<g id="node18" class="node">
<title>nid&#45;15</title>
<ellipse fill="none" stroke="red" cx="2128.13" cy="-73.29" rx="36.12" ry="26.74"/>
<text text-anchor="middle" x="2128.13" y="-77.09" font-family="Times,serif" font-size="14.00">0x15</text>
<text text-anchor="middle" x="2128.13" y="-62.09" font-family="Times,serif" font-size="14.00">Stereo</text>
</g>
<!-- nid&#45;17&#45;ampout -->
<g id="node19" class="node">
<title>nid&#45;17&#45;ampout</title>
<polygon fill="none" stroke="#3434f0" points="1876.07,-73.29 1835.57,-91.29 1835.57,-55.29 1876.07,-73.29"/>
</g>
<!-- nid&#45;17&#45;ampout&#45;&gt;nid&#45;15 -->
<g id="edge21" class="edge">
<title>nid&#45;17&#45;ampout&#45;&gt;nid&#45;15</title>
<path fill="none" stroke="#333333" d="M1876.13,-73.29C1923.28,-73.29 2023.25,-73.29 2081.8,-73.29"/>
<polygon fill="#333333" stroke="#333333" points="2081.88,-76.79 2091.88,-73.29 2081.88,-69.79 2081.88,-76.79"/>
</g>
<!-- nid&#45;16 -->
<g id="node20" class="node">
<title>nid&#45;16</title>
<ellipse fill="none" stroke="red" cx="2128.13" cy="-235.29" rx="36.12" ry="26.74"/>
<text text-anchor="middle" x="2128.13" y="-239.09" font-family="Times,serif" font-size="14.00">0x16</text>
<text text-anchor="middle" x="2128.13" y="-224.09" font-family="Times,serif" font-size="14.00">Stereo</text>
</g>
<!-- nid&#45;18&#45;ampout -->
<g id="node21" class="node">
<title>nid&#45;18&#45;ampout</title>
<polygon fill="none" stroke="#c8c8c8" points="1876.07,-235.29 1835.57,-253.29 1835.57,-217.29 1876.07,-235.29"/>
</g>
<!-- nid&#45;18&#45;ampout&#45;&gt;nid&#45;16 -->
<g id="edge22" class="edge">
<title>nid&#45;18&#45;ampout&#45;&gt;nid&#45;16</title>
<path fill="none" stroke="#333333" d="M1876.13,-235.29C1923.28,-235.29 2023.25,-235.29 2081.8,-235.29"/>
<polygon fill="#333333" stroke="#333333" points="2081.88,-238.79 2091.88,-235.29 2081.88,-231.79 2081.88,-238.79"/>
</g>
<!-- nid&#45;17&#45;&gt;nid&#45;17&#45;ampout -->
<g id="edge23" class="edge">
<title>nid&#45;17&#45;&gt;nid&#45;17&#45;ampout</title>
<path fill="none" stroke="#3434f0" d="M1589.93,-73.29C1664.41,-73.29 1785.3,-73.29 1830.38,-73.29"/>
<polygon fill="#3434f0" stroke="#3434f0" points="1830.49,-75.04 1835.49,-73.29 1830.49,-71.54 1830.49,-75.04"/>
</g>
<!-- nid&#45;1b -->
<g id="node23" class="node">
<title>nid&#45;1b</title>
<polygon fill="none" stroke="black" points="1206.26,-452.29 1185.37,-483.35 1143.59,-483.35 1122.7,-452.29 1143.59,-421.24 1185.37,-421.24 1206.26,-452.29"/>
<text text-anchor="middle" x="1164.48" y="-456.09" font-family="Times,serif" font-size="14.00">0x1b</text>
<text text-anchor="middle" x="1164.48" y="-441.09" font-family="Times,serif" font-size="14.00">Stereo</text>
</g>
<!-- nid&#45;1b&#45;&gt;nid&#45;17 -->
<g id="edge24" class="edge">
<title>nid&#45;1b&#45;&gt;nid&#45;17</title>
<path fill="none" stroke="gray" stroke-dasharray="5,2" d="M1189.43,-427.13C1249.28,-364.27 1406.01,-199.63 1482.72,-119.05"/>
<polygon fill="gray" stroke="gray" points="1485.53,-121.17 1489.89,-111.52 1480.46,-116.35 1485.53,-121.17"/>
</g>
<!-- nid&#45;1b&#45;&gt;nid&#45;18 -->
<g id="edge30" class="edge">
<title>nid&#45;1b&#45;&gt;nid&#45;18</title>
<path fill="none" stroke="#333333" d="M1194.7,-434.72C1254.14,-398.97 1390.12,-317.18 1468.23,-270.21"/>
<polygon fill="#333333" stroke="#333333" points="1470.23,-273.09 1476.99,-264.93 1466.62,-267.09 1470.23,-273.09"/>
</g>
<!-- nid&#45;1c -->
<g id="node30" class="node">
<title>nid&#45;1c</title>
<polygon fill="none" stroke="black" points="122.49,-966.29 38.58,-966.29 16.99,-890.29 100.9,-890.29 122.49,-966.29"/>
<text text-anchor="middle" x="69.74" y="-932.09" font-family="Times,serif" font-size="14.00">0x1c</text>
<text text-anchor="middle" x="69.74" y="-917.09" font-family="Times,serif" font-size="14.00">Stereo</text>
</g>
<!-- nid&#45;1b&#45;&gt;nid&#45;1c -->
<g id="edge46" class="edge">
<title>nid&#45;1b&#45;&gt;nid&#45;1c</title>
<path fill="none" stroke="#333333" d="M1161.07,-483.32C1151,-589 1102.18,-936.03 888.48,-1075.29 642.86,-1235.36 271.81,-1048.61 129.32,-964.84"/>
<polygon fill="#333333" stroke="#333333" points="131.06,-961.8 120.67,-959.72 127.49,-967.83 131.06,-961.8"/>
</g>
<!-- nid&#45;18&#45;&gt;nid&#45;18&#45;ampout -->
<g id="edge29" class="edge">
<title>nid&#45;18&#45;&gt;nid&#45;18&#45;ampout</title>
<path fill="none" stroke="#c8c8c8" d="M1589.93,-235.29C1664.41,-235.29 1785.3,-235.29 1830.38,-235.29"/>
<polygon fill="#c8c8c8" stroke="#c8c8c8" points="1830.49,-237.04 1835.49,-235.29 1830.49,-233.54 1830.49,-237.04"/>
</g>
<!-- nid&#45;1b&#45;ampin&#45;19&#45;&gt;nid&#45;1b -->
<g id="edge35" class="edge">
<title>nid&#45;1b&#45;ampin&#45;19&#45;&gt;nid&#45;1b</title>
<path fill="none" stroke="#c8c8c8" d="M841.24,-508.95C911.21,-496.65 1051.38,-472 1121.51,-459.67"/>
<polygon fill="#c8c8c8" stroke="#c8c8c8" points="1122.22,-461.33 1126.84,-458.74 1121.61,-457.88 1122.22,-461.33"/>
</g>
<!-- nid&#45;1b&#45;ampin&#45;20&#45;&gt;nid&#45;1b -->
<g id="edge36" class="edge">
<title>nid&#45;1b&#45;ampin&#45;20&#45;&gt;nid&#45;1b</title>
<path fill="none" stroke="#c8c8c8" d="M827.74,-570.36C892.5,-547.58 1051.69,-491.6 1125.17,-465.76"/>
<polygon fill="#c8c8c8" stroke="#c8c8c8" points="1126.18,-467.27 1130.31,-463.96 1125.01,-463.96 1126.18,-467.27"/>
</g>
<!-- nid&#45;1b&#45;ampin&#45;10&#45;&gt;nid&#45;1b -->
<g id="edge37" class="edge">
<title>nid&#45;1b&#45;ampin&#45;10&#45;&gt;nid&#45;1b</title>
<path fill="none" stroke="#c8c8c8" d="M840.88,-395.57C910.85,-407.87 1051.7,-432.64 1121.83,-444.97"/>
<polygon fill="#c8c8c8" stroke="#c8c8c8" points="1121.53,-446.69 1126.76,-445.84 1122.14,-443.25 1121.53,-446.69"/>
</g>
<!-- nid&#45;1b&#45;ampin&#45;12&#45;&gt;nid&#45;1b -->
<g id="edge38" class="edge">
<title>nid&#45;1b&#45;ampin&#45;12&#45;&gt;nid&#45;1b</title>
<path fill="none" stroke="#c8c8c8" d="M827.44,-334.12C891.98,-356.82 1051.46,-412.9 1125.09,-438.79"/>
<polygon fill="#c8c8c8" stroke="#c8c8c8" points="1124.94,-440.6 1130.24,-440.6 1126.1,-437.29 1124.94,-440.6"/>
</g>
<!-- nid&#45;1b&#45;ampin&#45;15&#45;&gt;nid&#45;1b -->
<g id="edge39" class="edge">
<title>nid&#45;1b&#45;ampin&#45;15&#45;&gt;nid&#45;1b</title>
<path fill="none" stroke="#c8c8c8" d="M877.57,-452.29C950.57,-452.29 1057.11,-452.29 1117.4,-452.29"/>
<polygon fill="#c8c8c8" stroke="#c8c8c8" points="1117.73,-454.04 1122.73,-452.29 1117.73,-450.54 1117.73,-454.04"/>
</g>
<!-- nid&#45;1c&#45;&gt;nid&#45;1c&#45;ampout -->
<g id="edge45" class="edge">
<title>nid&#45;1c&#45;&gt;nid&#45;1c&#45;ampout</title>
<path fill="none" stroke="#c8c8c8" d="M111.71,-928.29C187.67,-928.29 347.5,-928.29 401.06,-928.29"/>
<polygon fill="#c8c8c8" stroke="#c8c8c8" points="401.19,-930.04 406.19,-928.29 401.19,-926.54 401.19,-930.04"/>
</g>
</g>
</svg>
