<?xml version="1.0" encoding="UTF-8" standalone="no"?>
<!DOCTYPE svg PUBLIC "-//W3C//DTD SVG 1.1//EN"
 "http://www.w3.org/Graphics/SVG/1.1/DTD/svg11.dtd">
<!-- Generated by graphviz version 2.50.0 (20211204.2007)
 -->
<!-- Pages: 1 -->
<svg width="1771pt" height="1323pt"
 viewBox="0.00 0.00 1771.44 1323.00" xmlns="http://www.w3.org/2000/svg" xmlns:xlink="http://www.w3.org/1999/xlink">
<g id="graph0" class="graph" transform="scale(1 1) rotate(0) translate(4 1319)">
<polygon fill="white" stroke="transparent" points="-4,4 -4,-1319 1767.44,-1319 1767.44,4 -4,4"/>
<g id="clust6" class="cluster">
<title>cluster&#45;nid&#45;07</title>
<polygon fill="none" stroke="#cccccc" points="1094.55,-1223 1094.55,-1293 1467.32,-1293 1467.32,-1223 1094.55,-1223"/>
</g>
<g id="clust7" class="cluster">
<title>cluster&#45;nid&#45;08</title>
<polygon fill="none" stroke="#cccccc" points="1388.26,-684 1388.26,-754 1755.44,-754 1755.44,-684 1388.26,-684"/>
</g>
<g id="clust8" class="cluster">
<title>cluster&#45;nid&#45;09</title>
<polygon fill="none" stroke="#cccccc" points="1388.26,-1010 1388.26,-1080 1755.44,-1080 1755.44,-1010 1388.26,-1010"/>
</g>
<g id="clust18" class="cluster">
<title>cluster&#45;nid&#45;12&#45;out</title>
<polygon fill="none" stroke="#cccccc" points="300.62,-1031 300.62,-1115 495.62,-1115 495.62,-1031 300.62,-1031"/>
</g>
<g id="clust20" class="cluster">
<title>cluster&#45;nid&#45;13&#45;out</title>
<polygon fill="none" stroke="#cccccc" points="308.12,-1131 308.12,-1215 488.12,-1215 488.12,-1131 308.12,-1131"/>
</g>
<g id="clust21" class="cluster">
<title>cluster&#45;nid&#45;14&#45;in</title>
<polygon fill="none" stroke="#cccccc" points="701.52,-468 701.52,-552 878.52,-552 878.52,-468 701.52,-468"/>
</g>
<g id="clust24" class="cluster">
<title>cluster&#45;nid&#45;16&#45;in</title>
<polygon fill="none" stroke="#cccccc" points="701.52,-284 701.52,-368 878.52,-368 878.52,-284 701.52,-284"/>
</g>
<g id="clust26" class="cluster">
<title>cluster&#45;nid&#45;17&#45;in</title>
<polygon fill="none" stroke="#cccccc" points="700.52,-100 700.52,-184 879.52,-184 879.52,-100 700.52,-100"/>
</g>
<g id="clust29" class="cluster">
<title>cluster&#45;nid&#45;18&#45;out</title>
<polygon fill="none" stroke="#cccccc" points="309.62,-1223 309.62,-1307 486.62,-1307 486.62,-1223 309.62,-1223"/>
</g>
<g id="clust31" class="cluster">
<title>cluster&#45;nid&#45;19&#45;out</title>
<polygon fill="none" stroke="#cccccc" points="309.62,-553 309.62,-637 486.62,-637 486.62,-553 309.62,-553"/>
</g>
<g id="clust33" class="cluster">
<title>cluster&#45;nid&#45;1a&#45;out</title>
<polygon fill="none" stroke="#cccccc" points="309.62,-924 309.62,-1008 486.62,-1008 486.62,-924 309.62,-924"/>
</g>
<g id="clust34" class="cluster">
<title>cluster&#45;nid&#45;1b&#45;in</title>
<polygon fill="none" stroke="#cccccc" points="712.02,-192 712.02,-276 1164.55,-276 1164.55,-192 712.02,-192"/>
</g>
<g id="clust35" class="cluster">
<title>cluster&#45;nid&#45;1b&#45;out</title>
<polygon fill="none" stroke="#cccccc" points="17.06,-802 17.06,-886 476.12,-886 476.12,-802 17.06,-802"/>
</g>
<g id="clust38" class="cluster">
<title>cluster&#45;nid&#45;1d&#45;out</title>
<polygon fill="none" stroke="#cccccc" points="296.12,-649 296.12,-733 500.12,-733 500.12,-649 296.12,-649"/>
</g>
<g id="clust39" class="cluster">
<title>cluster&#45;nid&#45;1e&#45;in</title>
<polygon fill="none" stroke="#cccccc" points="701.52,-8 701.52,-92 878.52,-92 878.52,-8 701.52,-8"/>
</g>
<g id="clust43" class="cluster">
<title>cluster&#45;nid&#45;21&#45;in</title>
<polygon fill="none" stroke="#cccccc" points="704.02,-376 704.02,-460 876.02,-460 876.02,-376 704.02,-376"/>
</g>
<g id="clust45" class="cluster">
<title>cluster&#45;nid&#45;22</title>
<polygon fill="none" stroke="#cccccc" points="700.12,-886 700.12,-1204 1179.19,-1204 1179.19,-886 700.12,-886"/>
</g>
<g id="clust46" class="cluster">
<title>cluster&#45;nid&#45;23</title>
<polygon fill="none" stroke="#cccccc" points="700.12,-560 700.12,-878 1179.19,-878 1179.19,-560 700.12,-560"/>
</g>
<g id="clust47" class="cluster">
<title>cluster&#45;nid&#45;24</title>
<polygon fill="none" stroke="#cccccc" points="729.14,-1212 729.14,-1304 850.89,-1304 850.89,-1212 729.14,-1212"/>
</g>
<g id="clust1" class="cluster">
<title>cluster&#45;nid&#45;02</title>
<polygon fill="none" stroke="#cccccc" points="8,-291 8,-361 433.12,-361 433.12,-291 8,-291"/>
</g>
<g id="clust2" class="cluster">
<title>cluster&#45;nid&#45;03</title>
<polygon fill="none" stroke="#cccccc" points="8,-206 8,-276 433.12,-276 433.12,-206 8,-206"/>
</g>
<g id="clust5" class="cluster">
<title>cluster&#45;nid&#45;06</title>
<polygon fill="none" stroke="#cccccc" points="354.06,-61 354.06,-131 442.19,-131 442.19,-61 354.06,-61"/>
</g>
<!-- nid&#45;02 -->
<g id="node1" class="node">
<title>nid&#45;02</title>
<ellipse fill="none" stroke="blue" cx="52.06" cy="-326" rx="36.12" ry="26.74"/>
<text text-anchor="middle" x="52.06" y="-329.8" font-family="Times,serif" font-size="14.00">0x02</text>
<text text-anchor="middle" x="52.06" y="-314.8" font-family="Times,serif" font-size="14.00">Stereo</text>
</g>
<!-- nid&#45;02&#45;ampout -->
<g id="node2" class="node">
<title>nid&#45;02&#45;ampout</title>
<polygon fill="none" stroke="#0000ff" points="425.12,-326 384.62,-344 384.62,-308 425.12,-326"/>
</g>
<!-- nid&#45;02&#45;&gt;nid&#45;02&#45;ampout -->
<g id="edge1" class="edge">
<title>nid&#45;02&#45;&gt;nid&#45;02&#45;ampout</title>
<path fill="none" stroke="#0000ff" d="M88.27,-326C160.79,-326 324.62,-326 379.12,-326"/>
<polygon fill="#0000ff" stroke="#0000ff" points="379.34,-327.75 384.34,-326 379.34,-324.25 379.34,-327.75"/>
</g>
<!-- nid&#45;14&#45;in -->
<g id="node17" class="node">
<title>nid&#45;14&#45;in</title>
<polygon fill="none" stroke="green" points="870.52,-544 709.52,-544 709.52,-476 870.52,-476 870.52,-544"/>
<text text-anchor="middle" x="790.02" y="-528.8" font-family="Times,serif" font-size="14.00">0x14</text>
<text text-anchor="middle" x="790.02" y="-513.8" font-family="Times,serif" font-size="14.00">[N/A] Speaker at Ext Rear</text>
<text text-anchor="middle" x="790.02" y="-498.8" font-family="Times,serif" font-size="14.00">Stereo</text>
<text text-anchor="middle" x="790.02" y="-483.8" font-family="Times,serif" font-size="14.00">OUT EAPD Detect</text>
</g>
<!-- nid&#45;02&#45;ampout&#45;&gt;nid&#45;14&#45;in -->
<g id="edge9" class="edge">
<title>nid&#45;02&#45;ampout&#45;&gt;nid&#45;14&#45;in</title>
<path fill="none" stroke="#333333" d="M412.1,-332.12C457.41,-353.51 611.12,-426.05 707.69,-471.62"/>
<polygon fill="#333333" stroke="#333333" points="706.31,-474.84 716.85,-475.94 709.3,-468.51 706.31,-474.84"/>
</g>
<!-- nid&#45;16&#45;in -->
<g id="node18" class="node">
<title>nid&#45;16&#45;in</title>
<polygon fill="none" stroke="green" points="870.52,-360 709.52,-360 709.52,-292 870.52,-292 870.52,-360"/>
<text text-anchor="middle" x="790.02" y="-344.8" font-family="Times,serif" font-size="14.00">0x16</text>
<text text-anchor="middle" x="790.02" y="-329.8" font-family="Times,serif" font-size="14.00">[N/A] Speaker at Ext Rear</text>
<text text-anchor="middle" x="790.02" y="-314.8" font-family="Times,serif" font-size="14.00">Stereo</text>
<text text-anchor="middle" x="790.02" y="-299.8" font-family="Times,serif" font-size="14.00">OUT HP Detect</text>
</g>
<!-- nid&#45;02&#45;ampout&#45;&gt;nid&#45;16&#45;in -->
<g id="edge10" class="edge">
<title>nid&#45;02&#45;ampout&#45;&gt;nid&#45;16&#45;in</title>
<path fill="none" stroke="#333333" d="M425.31,-326C480.39,-326 610.43,-326 699.12,-326"/>
<polygon fill="#333333" stroke="#333333" points="699.18,-329.5 709.18,-326 699.18,-322.5 699.18,-329.5"/>
</g>
<!-- nid&#45;17&#45;in -->
<g id="node19" class="node">
<title>nid&#45;17&#45;in</title>
<polygon fill="none" stroke="green" points="871.52,-176 708.52,-176 708.52,-108 871.52,-108 871.52,-176"/>
<text text-anchor="middle" x="790.02" y="-160.8" font-family="Times,serif" font-size="14.00">0x17</text>
<text text-anchor="middle" x="790.02" y="-145.8" font-family="Times,serif" font-size="14.00">[Fixed] Speaker at Int N/A</text>
<text text-anchor="middle" x="790.02" y="-130.8" font-family="Times,serif" font-size="14.00">Stereo</text>
<text text-anchor="middle" x="790.02" y="-115.8" font-family="Times,serif" font-size="14.00">OUT HP Detect</text>
</g>
<!-- nid&#45;02&#45;ampout&#45;&gt;nid&#45;17&#45;in -->
<g id="edge12" class="edge">
<title>nid&#45;02&#45;ampout&#45;&gt;nid&#45;17&#45;in</title>
<path fill="none" stroke="gray" stroke-dasharray="5,2" d="M412.23,-320.12C431.53,-311.45 468.69,-294.66 500.12,-280 571.13,-246.88 651.53,-208.39 709.45,-180.49"/>
<polygon fill="gray" stroke="gray" points="711.06,-183.6 718.55,-176.11 708.02,-177.29 711.06,-183.6"/>
</g>
<!-- nid&#45;1b&#45;in -->
<g id="node23" class="node">
<title>nid&#45;1b&#45;in</title>
<polygon fill="none" stroke="green" points="860.02,-268 720.02,-268 720.02,-200 860.02,-200 860.02,-268"/>
<text text-anchor="middle" x="790.02" y="-252.8" font-family="Times,serif" font-size="14.00">0x1b</text>
<text text-anchor="middle" x="790.02" y="-237.8" font-family="Times,serif" font-size="14.00">[Jack] Mic at Ext Left</text>
<text text-anchor="middle" x="790.02" y="-222.8" font-family="Times,serif" font-size="14.00">Stereo</text>
<text text-anchor="middle" x="790.02" y="-207.8" font-family="Times,serif" font-size="14.00">IN OUT EAPD Detect</text>
</g>
<!-- nid&#45;02&#45;ampout&#45;&gt;nid&#45;1b&#45;in -->
<g id="edge17" class="edge">
<title>nid&#45;02&#45;ampout&#45;&gt;nid&#45;1b&#45;in</title>
<path fill="none" stroke="#333333" d="M416.13,-321.99C466.33,-310.14 616.25,-274.77 710,-252.65"/>
<polygon fill="#333333" stroke="#333333" points="711.08,-255.99 720.01,-250.28 709.47,-249.17 711.08,-255.99"/>
</g>
<!-- nid&#45;21&#45;in -->
<g id="node29" class="node">
<title>nid&#45;21&#45;in</title>
<polygon fill="none" stroke="green" points="868.02,-452 712.02,-452 712.02,-384 868.02,-384 868.02,-452"/>
<text text-anchor="middle" x="790.02" y="-436.8" font-family="Times,serif" font-size="14.00">0x21</text>
<text text-anchor="middle" x="790.02" y="-421.8" font-family="Times,serif" font-size="14.00">[Jack] HP Out at Ext Left</text>
<text text-anchor="middle" x="790.02" y="-406.8" font-family="Times,serif" font-size="14.00">Stereo</text>
<text text-anchor="middle" x="790.02" y="-391.8" font-family="Times,serif" font-size="14.00">OUT HP EAPD Detect</text>
</g>
<!-- nid&#45;02&#45;ampout&#45;&gt;nid&#45;21&#45;in -->
<g id="edge20" class="edge">
<title>nid&#45;02&#45;ampout&#45;&gt;nid&#45;21&#45;in</title>
<path fill="none" stroke="#333333" d="M416.13,-330.01C464.9,-341.52 607.75,-375.23 701.82,-397.42"/>
<polygon fill="#333333" stroke="#333333" points="701.08,-400.85 711.62,-399.74 702.69,-394.03 701.08,-400.85"/>
</g>
<!-- nid&#45;03 -->
<g id="node3" class="node">
<title>nid&#45;03</title>
<ellipse fill="none" stroke="blue" cx="52.06" cy="-241" rx="36.12" ry="26.74"/>
<text text-anchor="middle" x="52.06" y="-244.8" font-family="Times,serif" font-size="14.00">0x03</text>
<text text-anchor="middle" x="52.06" y="-229.8" font-family="Times,serif" font-size="14.00">Stereo</text>
</g>
<!-- nid&#45;03&#45;ampout -->
<g id="node4" class="node">
<title>nid&#45;03&#45;ampout</title>
<polygon fill="none" stroke="#0000ff" points="425.12,-241 384.62,-259 384.62,-223 425.12,-241"/>
</g>
<!-- nid&#45;03&#45;&gt;nid&#45;03&#45;ampout -->
<g id="edge2" class="edge">
<title>nid&#45;03&#45;&gt;nid&#45;03&#45;ampout</title>
<path fill="none" stroke="#0000ff" d="M88.27,-241C160.79,-241 324.62,-241 379.12,-241"/>
<polygon fill="#0000ff" stroke="#0000ff" points="379.34,-242.75 384.34,-241 379.34,-239.25 379.34,-242.75"/>
</g>
<!-- nid&#45;03&#45;ampout&#45;&gt;nid&#45;16&#45;in -->
<g id="edge11" class="edge">
<title>nid&#45;03&#45;ampout&#45;&gt;nid&#45;16&#45;in</title>
<path fill="none" stroke="gray" stroke-dasharray="5,2" d="M416.64,-244.82C465.51,-255.47 605.95,-286.09 699.7,-306.53"/>
<polygon fill="gray" stroke="gray" points="698.95,-309.95 709.47,-308.66 700.45,-303.11 698.95,-309.95"/>
</g>
<!-- nid&#45;03&#45;ampout&#45;&gt;nid&#45;17&#45;in -->
<g id="edge13" class="edge">
<title>nid&#45;03&#45;ampout&#45;&gt;nid&#45;17&#45;in</title>
<path fill="none" stroke="#333333" d="M415.88,-236.75C463.81,-224.57 604.11,-188.95 698.35,-165.02"/>
<polygon fill="#333333" stroke="#333333" points="699.34,-168.38 708.17,-162.53 697.62,-161.6 699.34,-168.38"/>
</g>
<!-- nid&#45;03&#45;ampout&#45;&gt;nid&#45;1b&#45;in -->
<g id="edge18" class="edge">
<title>nid&#45;03&#45;ampout&#45;&gt;nid&#45;1b&#45;in</title>
<path fill="none" stroke="gray" stroke-dasharray="5,2" d="M424.41,-240.55C481.19,-239.53 620.85,-237.02 709.91,-235.42"/>
<polygon fill="gray" stroke="gray" points="710.03,-238.92 719.97,-235.24 709.91,-231.92 710.03,-238.92"/>
</g>
<!-- nid&#45;03&#45;ampout&#45;&gt;nid&#45;21&#45;in -->
<g id="edge21" class="edge">
<title>nid&#45;03&#45;ampout&#45;&gt;nid&#45;21&#45;in</title>
<path fill="none" stroke="gray" stroke-dasharray="5,2" d="M412.1,-246.89C456.96,-267.26 608.09,-335.86 704.81,-379.77"/>
<polygon fill="gray" stroke="gray" points="703.44,-382.99 713.99,-383.94 706.34,-376.62 703.44,-382.99"/>
</g>
<!-- nid&#45;06 -->
<g id="node5" class="node">
<title>nid&#45;06</title>
<ellipse fill="none" stroke="blue" cx="398.12" cy="-96" rx="36.12" ry="26.74"/>
<text text-anchor="middle" x="398.12" y="-99.8" font-family="Times,serif" font-size="14.00">0x06</text>
<text text-anchor="middle" x="398.12" y="-84.8" font-family="Times,serif" font-size="14.00">Stereo</text>
</g>
<!-- nid&#45;06&#45;&gt;nid&#45;17&#45;in -->
<g id="edge14" class="edge">
<title>nid&#45;06&#45;&gt;nid&#45;17&#45;in</title>
<path fill="none" stroke="gray" stroke-dasharray="5,2" d="M434.07,-100.12C492.98,-107.07 613.87,-121.34 698.11,-131.27"/>
<polygon fill="gray" stroke="gray" points="697.85,-134.77 708.19,-132.46 698.67,-127.82 697.85,-134.77"/>
</g>
<!-- nid&#45;1e&#45;in -->
<g id="node28" class="node">
<title>nid&#45;1e&#45;in</title>
<polygon fill="none" stroke="green" points="870.52,-84 709.52,-84 709.52,-16 870.52,-16 870.52,-84"/>
<text text-anchor="middle" x="790.02" y="-68.8" font-family="Times,serif" font-size="14.00">0x1e</text>
<text text-anchor="middle" x="790.02" y="-53.8" font-family="Times,serif" font-size="14.00">[N/A] Speaker at Ext Rear</text>
<text text-anchor="middle" x="790.02" y="-38.8" font-family="Times,serif" font-size="14.00">Stereo</text>
<text text-anchor="middle" x="790.02" y="-23.8" font-family="Times,serif" font-size="14.00">OUT</text>
</g>
<!-- nid&#45;06&#45;&gt;nid&#45;1e&#45;in -->
<g id="edge19" class="edge">
<title>nid&#45;06&#45;&gt;nid&#45;1e&#45;in</title>
<path fill="none" stroke="#333333" d="M434.07,-91.88C493.25,-84.89 614.98,-70.53 699.26,-60.59"/>
<polygon fill="#333333" stroke="#333333" points="699.83,-64.05 709.35,-59.4 699.01,-57.1 699.83,-64.05"/>
</g>
<!-- nid&#45;07 -->
<g id="node6" class="node">
<title>nid&#45;07</title>
<ellipse fill="none" stroke="red" cx="1423.26" cy="-1258" rx="36.12" ry="26.74"/>
<text text-anchor="middle" x="1423.26" y="-1261.8" font-family="Times,serif" font-size="14.00">0x07</text>
<text text-anchor="middle" x="1423.26" y="-1246.8" font-family="Times,serif" font-size="14.00">Stereo</text>
</g>
<!-- nid&#45;07&#45;ampin -->
<g id="node7" class="node">
<title>nid&#45;07&#45;ampin</title>
<polygon fill="none" stroke="#c8c8c8" points="1156.55,-1258 1116.05,-1276 1116.05,-1240 1156.55,-1258"/>
</g>
<!-- nid&#45;07&#45;ampin&#45;&gt;nid&#45;07 -->
<g id="edge3" class="edge">
<title>nid&#45;07&#45;ampin&#45;&gt;nid&#45;07</title>
<path fill="none" stroke="#c8c8c8" d="M1156.7,-1258C1207.74,-1258 1320.96,-1258 1381.77,-1258"/>
<polygon fill="#c8c8c8" stroke="#c8c8c8" points="1382.13,-1259.75 1387.13,-1258 1382.13,-1256.25 1382.13,-1259.75"/>
</g>
<!-- nid&#45;24 -->
<g id="node8" class="node">
<title>nid&#45;24</title>
<polygon fill="none" stroke="black" points="842.77,-1296 758.85,-1296 737.27,-1220 821.18,-1220 842.77,-1296"/>
<text text-anchor="middle" x="790.02" y="-1261.8" font-family="Times,serif" font-size="14.00">0x24</text>
<text text-anchor="middle" x="790.02" y="-1246.8" font-family="Times,serif" font-size="14.00">Stereo</text>
</g>
<!-- nid&#45;24&#45;&gt;nid&#45;07&#45;ampin -->
<g id="edge4" class="edge">
<title>nid&#45;24&#45;&gt;nid&#45;07&#45;ampin</title>
<path fill="none" stroke="#333333" d="M832.07,-1258C903.73,-1258 1049.39,-1258 1105.65,-1258"/>
<polygon fill="#333333" stroke="#333333" points="1105.96,-1261.5 1115.96,-1258 1105.96,-1254.5 1105.96,-1261.5"/>
</g>
<!-- nid&#45;08 -->
<g id="node9" class="node">
<title>nid&#45;08</title>
<ellipse fill="none" stroke="red" cx="1711.38" cy="-719" rx="36.12" ry="26.74"/>
<text text-anchor="middle" x="1711.38" y="-722.8" font-family="Times,serif" font-size="14.00">0x08</text>
<text text-anchor="middle" x="1711.38" y="-707.8" font-family="Times,serif" font-size="14.00">Stereo</text>
</g>
<!-- nid&#45;08&#45;ampin -->
<g id="node10" class="node">
<title>nid&#45;08&#45;ampin</title>
<polygon fill="none" stroke="#3232f1" points="1450.26,-719 1409.76,-737 1409.76,-701 1450.26,-719"/>
</g>
<!-- nid&#45;08&#45;ampin&#45;&gt;nid&#45;08 -->
<g id="edge5" class="edge">
<title>nid&#45;08&#45;ampin&#45;&gt;nid&#45;08</title>
<path fill="none" stroke="#3232f1" d="M1450.41,-719C1500.49,-719 1610.26,-719 1669.89,-719"/>
<polygon fill="#3232f1" stroke="#3232f1" points="1670.15,-720.75 1675.15,-719 1670.15,-717.25 1670.15,-720.75"/>
</g>
<!-- nid&#45;23 -->
<g id="node11" class="node">
<title>nid&#45;23</title>
<polygon fill="none" stroke="black" points="1171.33,-719 1150.44,-750.05 1108.66,-750.05 1087.77,-719 1108.66,-687.95 1150.44,-687.95 1171.33,-719"/>
<text text-anchor="middle" x="1129.55" y="-722.8" font-family="Times,serif" font-size="14.00">0x23</text>
<text text-anchor="middle" x="1129.55" y="-707.8" font-family="Times,serif" font-size="14.00">Stereo</text>
</g>
<!-- nid&#45;23&#45;&gt;nid&#45;08&#45;ampin -->
<g id="edge6" class="edge">
<title>nid&#45;23&#45;&gt;nid&#45;08&#45;ampin</title>
<path fill="none" stroke="#333333" d="M1171.42,-719C1233.68,-719 1350.23,-719 1399.42,-719"/>
<polygon fill="#333333" stroke="#333333" points="1399.64,-722.5 1409.64,-719 1399.63,-715.5 1399.64,-722.5"/>
</g>
<!-- nid&#45;09 -->
<g id="node12" class="node">
<title>nid&#45;09</title>
<ellipse fill="none" stroke="red" cx="1711.38" cy="-1045" rx="36.12" ry="26.74"/>
<text text-anchor="middle" x="1711.38" y="-1048.8" font-family="Times,serif" font-size="14.00">0x09</text>
<text text-anchor="middle" x="1711.38" y="-1033.8" font-family="Times,serif" font-size="14.00">Stereo</text>
</g>
<!-- nid&#45;09&#45;ampin -->
<g id="node13" class="node">
<title>nid&#45;09&#45;ampin</title>
<polygon fill="none" stroke="#c8c8c8" points="1450.26,-1045 1409.76,-1063 1409.76,-1027 1450.26,-1045"/>
</g>
<!-- nid&#45;09&#45;ampin&#45;&gt;nid&#45;09 -->
<g id="edge7" class="edge">
<title>nid&#45;09&#45;ampin&#45;&gt;nid&#45;09</title>
<path fill="none" stroke="#c8c8c8" d="M1450.41,-1045C1500.49,-1045 1610.26,-1045 1669.89,-1045"/>
<polygon fill="#c8c8c8" stroke="#c8c8c8" points="1670.15,-1046.75 1675.15,-1045 1670.15,-1043.25 1670.15,-1046.75"/>
</g>
<!-- nid&#45;22 -->
<g id="node14" class="node">
<title>nid&#45;22</title>
<polygon fill="none" stroke="black" points="1171.33,-1045 1150.44,-1076.05 1108.66,-1076.05 1087.77,-1045 1108.66,-1013.95 1150.44,-1013.95 1171.33,-1045"/>
<text text-anchor="middle" x="1129.55" y="-1048.8" font-family="Times,serif" font-size="14.00">0x22</text>
<text text-anchor="middle" x="1129.55" y="-1033.8" font-family="Times,serif" font-size="14.00">Stereo</text>
</g>
<!-- nid&#45;22&#45;&gt;nid&#45;09&#45;ampin -->
<g id="edge8" class="edge">
<title>nid&#45;22&#45;&gt;nid&#45;09&#45;ampin</title>
<path fill="none" stroke="#333333" d="M1171.42,-1045C1233.68,-1045 1350.23,-1045 1399.42,-1045"/>
<polygon fill="#333333" stroke="#333333" points="1399.64,-1048.5 1409.64,-1045 1399.63,-1041.5 1399.64,-1048.5"/>
</g>
<!-- nid&#45;12&#45;out -->
<g id="node15" class="node">
<title>nid&#45;12&#45;out</title>
<polygon fill="none" stroke="green" points="487.62,-1107 308.62,-1107 308.62,-1039 487.62,-1039 487.62,-1107"/>
<text text-anchor="middle" x="398.12" y="-1091.8" font-family="Times,serif" font-size="14.00">0x12</text>
<text text-anchor="middle" x="398.12" y="-1076.8" font-family="Times,serif" font-size="14.00">[Fixed] Mic at Oth Mobile&#45;In</text>
<text text-anchor="middle" x="398.12" y="-1061.8" font-family="Times,serif" font-size="14.00">Stereo</text>
<text text-anchor="middle" x="398.12" y="-1046.8" font-family="Times,serif" font-size="14.00">IN</text>
</g>
<!-- nid&#45;12&#45;out&#45;&gt;nid&#45;24 -->
<g id="edge42" class="edge">
<title>nid&#45;12&#45;out&#45;&gt;nid&#45;24</title>
<path fill="none" stroke="#333333" d="M471.09,-1107.15C546.33,-1142.84 662.86,-1198.14 731.98,-1230.94"/>
<polygon fill="#333333" stroke="#333333" points="730.88,-1234.29 741.41,-1235.41 733.88,-1227.96 730.88,-1234.29"/>
</g>
<!-- nid&#45;23&#45;ampin&#45;18 -->
<g id="node39" class="node">
<title>nid&#45;23&#45;ampin&#45;18</title>
<polygon fill="none" stroke="#0000ff" points="871.8,-847 749.12,-870 749.12,-824 871.8,-847"/>
<text text-anchor="middle" x="790.02" y="-843.3" font-family="Times,serif" font-size="14.00">4 (0x12)</text>
</g>
<!-- nid&#45;12&#45;out&#45;&gt;nid&#45;23&#45;ampin&#45;18 -->
<g id="edge41" class="edge">
<title>nid&#45;12&#45;out&#45;&gt;nid&#45;23&#45;ampin&#45;18</title>
<path fill="none" stroke="#333333" d="M456.21,-1038.97C470.6,-1030.27 485.98,-1020.87 500.12,-1012 589.96,-955.7 605.88,-930.55 700.12,-882 712.46,-875.64 726.23,-869.7 739.18,-864.59"/>
<polygon fill="#333333" stroke="#333333" points="740.81,-867.71 748.88,-860.84 738.29,-861.18 740.81,-867.71"/>
</g>
<!-- nid&#45;13&#45;out -->
<g id="node16" class="node">
<title>nid&#45;13&#45;out</title>
<polygon fill="none" stroke="green" points="480.12,-1207 316.12,-1207 316.12,-1139 480.12,-1139 480.12,-1207"/>
<text text-anchor="middle" x="398.12" y="-1191.8" font-family="Times,serif" font-size="14.00">0x13</text>
<text text-anchor="middle" x="398.12" y="-1176.8" font-family="Times,serif" font-size="14.00">[N/A] Line Out at Ext N/A</text>
<text text-anchor="middle" x="398.12" y="-1161.8" font-family="Times,serif" font-size="14.00">Stereo</text>
<text text-anchor="middle" x="398.12" y="-1146.8" font-family="Times,serif" font-size="14.00">IN</text>
</g>
<!-- nid&#45;13&#45;out&#45;&gt;nid&#45;24 -->
<g id="edge43" class="edge">
<title>nid&#45;13&#45;out&#45;&gt;nid&#45;24</title>
<path fill="none" stroke="gray" stroke-dasharray="5,2" d="M480.38,-1190.72C556.86,-1207.39 669.21,-1231.88 735.17,-1246.26"/>
<polygon fill="gray" stroke="gray" points="734.82,-1249.77 745.34,-1248.48 736.32,-1242.93 734.82,-1249.77"/>
</g>
<!-- nid&#45;22&#45;ampin&#45;19 -->
<g id="node34" class="node">
<title>nid&#45;22&#45;ampin&#45;19</title>
<polygon fill="none" stroke="#c8c8c8" points="871.8,-1173 749.12,-1196 749.12,-1150 871.8,-1173"/>
<text text-anchor="middle" x="790.02" y="-1169.3" font-family="Times,serif" font-size="14.00">4 (0x13)</text>
</g>
<!-- nid&#45;13&#45;out&#45;&gt;nid&#45;22&#45;ampin&#45;19 -->
<g id="edge31" class="edge">
<title>nid&#45;13&#45;out&#45;&gt;nid&#45;22&#45;ampin&#45;19</title>
<path fill="none" stroke="#333333" d="M480.38,-1173C558.34,-1173 673.59,-1173 738.95,-1173"/>
<polygon fill="#333333" stroke="#333333" points="739,-1176.5 749,-1173 739,-1169.5 739,-1176.5"/>
</g>
<!-- nid&#45;18&#45;out -->
<g id="node20" class="node">
<title>nid&#45;18&#45;out</title>
<polygon fill="none" stroke="green" points="478.62,-1299 317.62,-1299 317.62,-1231 478.62,-1231 478.62,-1299"/>
<text text-anchor="middle" x="398.12" y="-1283.8" font-family="Times,serif" font-size="14.00">0x18</text>
<text text-anchor="middle" x="398.12" y="-1268.8" font-family="Times,serif" font-size="14.00">[N/A] Speaker at Ext Rear</text>
<text text-anchor="middle" x="398.12" y="-1253.8" font-family="Times,serif" font-size="14.00">Stereo</text>
<text text-anchor="middle" x="398.12" y="-1238.8" font-family="Times,serif" font-size="14.00">IN Detect</text>
</g>
<!-- nid&#45;18&#45;out&#45;&gt;nid&#45;24 -->
<g id="edge44" class="edge">
<title>nid&#45;18&#45;out&#45;&gt;nid&#45;24</title>
<path fill="none" stroke="gray" stroke-dasharray="5,2" d="M478.97,-1263.57C556.58,-1262.17 672.11,-1260.1 738.03,-1258.92"/>
<polygon fill="gray" stroke="gray" points="738.24,-1262.41 748.17,-1258.73 738.11,-1255.41 738.24,-1262.41"/>
</g>
<!-- nid&#45;19&#45;out -->
<g id="node21" class="node">
<title>nid&#45;19&#45;out</title>
<polygon fill="none" stroke="green" points="478.62,-629 317.62,-629 317.62,-561 478.62,-561 478.62,-629"/>
<text text-anchor="middle" x="398.12" y="-613.8" font-family="Times,serif" font-size="14.00">0x19</text>
<text text-anchor="middle" x="398.12" y="-598.8" font-family="Times,serif" font-size="14.00">[N/A] Speaker at Ext Rear</text>
<text text-anchor="middle" x="398.12" y="-583.8" font-family="Times,serif" font-size="14.00">Stereo</text>
<text text-anchor="middle" x="398.12" y="-568.8" font-family="Times,serif" font-size="14.00">IN Detect</text>
</g>
<!-- nid&#45;22&#45;ampin&#45;25 -->
<g id="node30" class="node">
<title>nid&#45;22&#45;ampin&#45;25</title>
<polygon fill="none" stroke="#c8c8c8" points="871.8,-917 749.12,-940 749.12,-894 871.8,-917"/>
<text text-anchor="middle" x="790.02" y="-913.3" font-family="Times,serif" font-size="14.00">0 (0x19)</text>
</g>
<!-- nid&#45;19&#45;out&#45;&gt;nid&#45;22&#45;ampin&#45;25 -->
<g id="edge27" class="edge">
<title>nid&#45;19&#45;out&#45;&gt;nid&#45;22&#45;ampin&#45;25</title>
<path fill="none" stroke="#333333" d="M476.43,-629.07C484.73,-633.94 492.81,-639.27 500.12,-645 608.6,-730.02 588.15,-801.64 700.12,-882 711.84,-890.4 725.84,-897.14 739.23,-902.36"/>
<polygon fill="#333333" stroke="#333333" points="738.24,-905.73 748.83,-905.9 740.66,-899.16 738.24,-905.73"/>
</g>
<!-- nid&#45;23&#45;ampin&#45;25 -->
<g id="node35" class="node">
<title>nid&#45;23&#45;ampin&#45;25</title>
<polygon fill="none" stroke="#c8c8c8" points="871.8,-591 749.12,-614 749.12,-568 871.8,-591"/>
<text text-anchor="middle" x="790.02" y="-587.3" font-family="Times,serif" font-size="14.00">0 (0x19)</text>
</g>
<!-- nid&#45;19&#45;out&#45;&gt;nid&#45;23&#45;ampin&#45;25 -->
<g id="edge37" class="edge">
<title>nid&#45;19&#45;out&#45;&gt;nid&#45;23&#45;ampin&#45;25</title>
<path fill="none" stroke="#333333" d="M478.97,-594.18C556.9,-593.38 673.06,-592.19 738.84,-591.51"/>
<polygon fill="#333333" stroke="#333333" points="738.99,-595.01 748.95,-591.41 738.92,-588.01 738.99,-595.01"/>
</g>
<!-- nid&#45;1a&#45;out -->
<g id="node22" class="node">
<title>nid&#45;1a&#45;out</title>
<polygon fill="none" stroke="green" points="478.62,-1000 317.62,-1000 317.62,-932 478.62,-932 478.62,-1000"/>
<text text-anchor="middle" x="398.12" y="-984.8" font-family="Times,serif" font-size="14.00">0x1a</text>
<text text-anchor="middle" x="398.12" y="-969.8" font-family="Times,serif" font-size="14.00">[N/A] Speaker at Ext Rear</text>
<text text-anchor="middle" x="398.12" y="-954.8" font-family="Times,serif" font-size="14.00">Stereo</text>
<text text-anchor="middle" x="398.12" y="-939.8" font-family="Times,serif" font-size="14.00">IN Detect</text>
</g>
<!-- nid&#45;22&#45;ampin&#45;26 -->
<g id="node31" class="node">
<title>nid&#45;22&#45;ampin&#45;26</title>
<polygon fill="none" stroke="#c8c8c8" points="870.7,-1109 749.67,-1132 749.67,-1086 870.7,-1109"/>
<text text-anchor="middle" x="790.02" y="-1105.3" font-family="Times,serif" font-size="14.00">1 (0x1a)</text>
</g>
<!-- nid&#45;1a&#45;out&#45;&gt;nid&#45;22&#45;ampin&#45;26 -->
<g id="edge28" class="edge">
<title>nid&#45;1a&#45;out&#45;&gt;nid&#45;22&#45;ampin&#45;26</title>
<path fill="none" stroke="#333333" d="M478.91,-995.62C539.55,-1018.07 625.03,-1049.64 700.12,-1077 713.02,-1081.7 726.98,-1086.74 739.94,-1091.41"/>
<polygon fill="#333333" stroke="#333333" points="739.02,-1094.8 749.61,-1094.89 741.38,-1088.21 739.02,-1094.8"/>
</g>
<!-- nid&#45;23&#45;ampin&#45;26 -->
<g id="node36" class="node">
<title>nid&#45;23&#45;ampin&#45;26</title>
<polygon fill="none" stroke="#c8c8c8" points="870.7,-783 749.67,-806 749.67,-760 870.7,-783"/>
<text text-anchor="middle" x="790.02" y="-779.3" font-family="Times,serif" font-size="14.00">1 (0x1a)</text>
</g>
<!-- nid&#45;1a&#45;out&#45;&gt;nid&#45;23&#45;ampin&#45;26 -->
<g id="edge38" class="edge">
<title>nid&#45;1a&#45;out&#45;&gt;nid&#45;23&#45;ampin&#45;26</title>
<path fill="none" stroke="#333333" d="M461.51,-931.96C521.67,-899.78 615.77,-851.19 700.12,-815 712.74,-809.59 726.6,-804.3 739.55,-799.62"/>
<polygon fill="#333333" stroke="#333333" points="740.99,-802.83 749.24,-796.18 738.65,-796.23 740.99,-802.83"/>
</g>
<!-- nid&#45;1b&#45;ampout -->
<g id="node24" class="node">
<title>nid&#45;1b&#45;ampout</title>
<polygon fill="none" stroke="#c8c8c8" points="1156.55,-234 1116.05,-252 1116.05,-216 1156.55,-234"/>
</g>
<!-- nid&#45;1b&#45;in&#45;&gt;nid&#45;1b&#45;ampout -->
<g id="edge15" class="edge">
<title>nid&#45;1b&#45;in&#45;&gt;nid&#45;1b&#45;ampout</title>
<path fill="none" stroke="#c8c8c8" d="M860.14,-234C939.46,-234 1064.54,-234 1110.69,-234"/>
<polygon fill="#c8c8c8" stroke="#c8c8c8" points="1110.91,-235.75 1115.91,-234 1110.91,-232.25 1110.91,-235.75"/>
</g>
<!-- nid&#45;1b&#45;out -->
<g id="node25" class="node">
<title>nid&#45;1b&#45;out</title>
<polygon fill="none" stroke="green" points="468.12,-878 328.12,-878 328.12,-810 468.12,-810 468.12,-878"/>
<text text-anchor="middle" x="398.12" y="-862.8" font-family="Times,serif" font-size="14.00">0x1b</text>
<text text-anchor="middle" x="398.12" y="-847.8" font-family="Times,serif" font-size="14.00">[Jack] Mic at Ext Left</text>
<text text-anchor="middle" x="398.12" y="-832.8" font-family="Times,serif" font-size="14.00">Stereo</text>
<text text-anchor="middle" x="398.12" y="-817.8" font-family="Times,serif" font-size="14.00">IN OUT EAPD Detect</text>
</g>
<!-- nid&#45;22&#45;ampin&#45;27 -->
<g id="node32" class="node">
<title>nid&#45;22&#45;ampin&#45;27</title>
<polygon fill="none" stroke="#c8c8c8" points="871.8,-1045 749.12,-1068 749.12,-1022 871.8,-1045"/>
<text text-anchor="middle" x="790.02" y="-1041.3" font-family="Times,serif" font-size="14.00">2 (0x1b)</text>
</g>
<!-- nid&#45;1b&#45;out&#45;&gt;nid&#45;22&#45;ampin&#45;27 -->
<g id="edge29" class="edge">
<title>nid&#45;1b&#45;out&#45;&gt;nid&#45;22&#45;ampin&#45;27</title>
<path fill="none" stroke="#333333" d="M453.44,-878.13C512.64,-914.46 610.86,-972.22 700.12,-1013 712.61,-1018.7 726.43,-1024.1 739.38,-1028.77"/>
<polygon fill="#333333" stroke="#333333" points="738.48,-1032.17 749.07,-1032.2 740.81,-1025.57 738.48,-1032.17"/>
</g>
<!-- nid&#45;23&#45;ampin&#45;27 -->
<g id="node37" class="node">
<title>nid&#45;23&#45;ampin&#45;27</title>
<polygon fill="none" stroke="#c8c8c8" points="871.8,-719 749.12,-742 749.12,-696 871.8,-719"/>
<text text-anchor="middle" x="790.02" y="-715.3" font-family="Times,serif" font-size="14.00">2 (0x1b)</text>
</g>
<!-- nid&#45;1b&#45;out&#45;&gt;nid&#45;23&#45;ampin&#45;27 -->
<g id="edge39" class="edge">
<title>nid&#45;1b&#45;out&#45;&gt;nid&#45;23&#45;ampin&#45;27</title>
<path fill="none" stroke="#333333" d="M468.38,-821.8C546.18,-796.85 670.53,-756.99 739.27,-734.95"/>
<polygon fill="#333333" stroke="#333333" points="740.55,-738.22 749,-731.83 738.41,-731.55 740.55,-738.22"/>
</g>
<!-- nid&#45;1b&#45;ampin -->
<g id="node26" class="node">
<title>nid&#45;1b&#45;ampin</title>
<polygon fill="none" stroke="#0000ff" points="79.06,-844 38.56,-862 38.56,-826 79.06,-844"/>
</g>
<!-- nid&#45;1b&#45;ampin&#45;&gt;nid&#45;1b&#45;out -->
<g id="edge16" class="edge">
<title>nid&#45;1b&#45;ampin&#45;&gt;nid&#45;1b&#45;out</title>
<path fill="none" stroke="#0000ff" d="M79.21,-844C130.43,-844 245.7,-844 322.45,-844"/>
<polygon fill="#0000ff" stroke="#0000ff" points="322.9,-845.75 327.9,-844 322.9,-842.25 322.9,-845.75"/>
</g>
<!-- nid&#45;1d&#45;out -->
<g id="node27" class="node">
<title>nid&#45;1d&#45;out</title>
<polygon fill="none" stroke="green" points="492.12,-725 304.12,-725 304.12,-657 492.12,-657 492.12,-725"/>
<text text-anchor="middle" x="398.12" y="-709.8" font-family="Times,serif" font-size="14.00">0x1d</text>
<text text-anchor="middle" x="398.12" y="-694.8" font-family="Times,serif" font-size="14.00">[N/A] Modem Line at Ext N/A</text>
<text text-anchor="middle" x="398.12" y="-679.8" font-family="Times,serif" font-size="14.00">Mono</text>
<text text-anchor="middle" x="398.12" y="-664.8" font-family="Times,serif" font-size="14.00">IN</text>
</g>
<!-- nid&#45;22&#45;ampin&#45;29 -->
<g id="node33" class="node">
<title>nid&#45;22&#45;ampin&#45;29</title>
<polygon fill="none" stroke="#c8c8c8" points="871.8,-981 749.12,-1004 749.12,-958 871.8,-981"/>
<text text-anchor="middle" x="790.02" y="-977.3" font-family="Times,serif" font-size="14.00">3 (0x1d)</text>
</g>
<!-- nid&#45;1d&#45;out&#45;&gt;nid&#45;22&#45;ampin&#45;29 -->
<g id="edge30" class="edge">
<title>nid&#45;1d&#45;out&#45;&gt;nid&#45;22&#45;ampin&#45;29</title>
<path fill="none" stroke="#333333" d="M430.77,-725.19C482.48,-779.31 590.37,-885.12 700.12,-949 712.1,-955.97 725.85,-961.82 738.9,-966.54"/>
<polygon fill="#333333" stroke="#333333" points="738.11,-969.97 748.7,-969.92 740.39,-963.35 738.11,-969.97"/>
</g>
<!-- nid&#45;23&#45;ampin&#45;29 -->
<g id="node38" class="node">
<title>nid&#45;23&#45;ampin&#45;29</title>
<polygon fill="none" stroke="#c8c8c8" points="871.8,-655 749.12,-678 749.12,-632 871.8,-655"/>
<text text-anchor="middle" x="790.02" y="-651.3" font-family="Times,serif" font-size="14.00">3 (0x1d)</text>
</g>
<!-- nid&#45;1d&#45;out&#45;&gt;nid&#45;23&#45;ampin&#45;29 -->
<g id="edge40" class="edge">
<title>nid&#45;1d&#45;out&#45;&gt;nid&#45;23&#45;ampin&#45;29</title>
<path fill="none" stroke="#333333" d="M492.51,-682.38C569.82,-675.24 676.69,-665.37 738.77,-659.64"/>
<polygon fill="#333333" stroke="#333333" points="739.44,-663.09 749.08,-658.69 738.8,-656.12 739.44,-663.09"/>
</g>
<!-- nid&#45;22&#45;ampin&#45;25&#45;&gt;nid&#45;22 -->
<g id="edge22" class="edge">
<title>nid&#45;22&#45;ampin&#45;25&#45;&gt;nid&#45;22</title>
<path fill="none" stroke="#c8c8c8" d="M818.97,-926.94C836.42,-933.18 859.31,-941.45 879.52,-949 954.85,-977.13 1042.49,-1011.24 1091.13,-1030.29"/>
<polygon fill="#c8c8c8" stroke="#c8c8c8" points="1090.71,-1032.01 1096,-1032.2 1091.98,-1028.75 1090.71,-1032.01"/>
</g>
<!-- nid&#45;22&#45;ampin&#45;26&#45;&gt;nid&#45;22 -->
<g id="edge23" class="edge">
<title>nid&#45;22&#45;ampin&#45;26&#45;&gt;nid&#45;22</title>
<path fill="none" stroke="#c8c8c8" d="M831.06,-1101.41C895.57,-1089.18 1021.83,-1065.23 1087.18,-1052.85"/>
<polygon fill="#c8c8c8" stroke="#c8c8c8" points="1087.57,-1054.55 1092.16,-1051.9 1086.92,-1051.11 1087.57,-1054.55"/>
</g>
<!-- nid&#45;22&#45;ampin&#45;27&#45;&gt;nid&#45;22 -->
<g id="edge24" class="edge">
<title>nid&#45;22&#45;ampin&#45;27&#45;&gt;nid&#45;22</title>
<path fill="none" stroke="#c8c8c8" d="M871.87,-1045C937.8,-1045 1028.59,-1045 1082.65,-1045"/>
<polygon fill="#c8c8c8" stroke="#c8c8c8" points="1082.77,-1046.75 1087.77,-1045 1082.76,-1043.25 1082.77,-1046.75"/>
</g>
<!-- nid&#45;22&#45;ampin&#45;29&#45;&gt;nid&#45;22 -->
<g id="edge25" class="edge">
<title>nid&#45;22&#45;ampin&#45;29&#45;&gt;nid&#45;22</title>
<path fill="none" stroke="#c8c8c8" d="M831.4,-988.66C896.03,-1000.91 1022.07,-1024.81 1087.27,-1037.17"/>
<polygon fill="#c8c8c8" stroke="#c8c8c8" points="1087,-1038.9 1092.24,-1038.11 1087.65,-1035.46 1087,-1038.9"/>
</g>
<!-- nid&#45;22&#45;ampin&#45;19&#45;&gt;nid&#45;22 -->
<g id="edge26" class="edge">
<title>nid&#45;22&#45;ampin&#45;19&#45;&gt;nid&#45;22</title>
<path fill="none" stroke="#c8c8c8" d="M818.97,-1163.06C836.42,-1156.82 859.31,-1148.55 879.52,-1141 954.85,-1112.87 1042.49,-1078.76 1091.13,-1059.71"/>
<polygon fill="#c8c8c8" stroke="#c8c8c8" points="1091.98,-1061.25 1096,-1057.8 1090.71,-1057.99 1091.98,-1061.25"/>
</g>
<!-- nid&#45;23&#45;ampin&#45;25&#45;&gt;nid&#45;23 -->
<g id="edge32" class="edge">
<title>nid&#45;23&#45;ampin&#45;25&#45;&gt;nid&#45;23</title>
<path fill="none" stroke="#c8c8c8" d="M818.97,-600.94C836.42,-607.18 859.31,-615.45 879.52,-623 954.85,-651.13 1042.49,-685.24 1091.13,-704.29"/>
<polygon fill="#c8c8c8" stroke="#c8c8c8" points="1090.71,-706.01 1096,-706.2 1091.98,-702.75 1090.71,-706.01"/>
</g>
<!-- nid&#45;23&#45;ampin&#45;26&#45;&gt;nid&#45;23 -->
<g id="edge33" class="edge">
<title>nid&#45;23&#45;ampin&#45;26&#45;&gt;nid&#45;23</title>
<path fill="none" stroke="#c8c8c8" d="M831.06,-775.41C895.57,-763.18 1021.83,-739.23 1087.18,-726.85"/>
<polygon fill="#c8c8c8" stroke="#c8c8c8" points="1087.57,-728.55 1092.16,-725.9 1086.92,-725.11 1087.57,-728.55"/>
</g>
<!-- nid&#45;23&#45;ampin&#45;27&#45;&gt;nid&#45;23 -->
<g id="edge34" class="edge">
<title>nid&#45;23&#45;ampin&#45;27&#45;&gt;nid&#45;23</title>
<path fill="none" stroke="#c8c8c8" d="M871.87,-719C937.8,-719 1028.59,-719 1082.65,-719"/>
<polygon fill="#c8c8c8" stroke="#c8c8c8" points="1082.77,-720.75 1087.77,-719 1082.76,-717.25 1082.77,-720.75"/>
</g>
<!-- nid&#45;23&#45;ampin&#45;29&#45;&gt;nid&#45;23 -->
<g id="edge35" class="edge">
<title>nid&#45;23&#45;ampin&#45;29&#45;&gt;nid&#45;23</title>
<path fill="none" stroke="#c8c8c8" d="M831.4,-662.66C896.03,-674.91 1022.07,-698.81 1087.27,-711.17"/>
<polygon fill="#c8c8c8" stroke="#c8c8c8" points="1087,-712.9 1092.24,-712.11 1087.65,-709.46 1087,-712.9"/>
</g>
<!-- nid&#45;23&#45;ampin&#45;18&#45;&gt;nid&#45;23 -->
<g id="edge36" class="edge">
<title>nid&#45;23&#45;ampin&#45;18&#45;&gt;nid&#45;23</title>
<path fill="none" stroke="#0000ff" d="M818.97,-837.06C836.42,-830.82 859.31,-822.55 879.52,-815 954.85,-786.87 1042.49,-752.76 1091.13,-733.71"/>
<polygon fill="#0000ff" stroke="#0000ff" points="1091.98,-735.25 1096,-731.8 1090.71,-731.99 1091.98,-735.25"/>
</g>
</g>
</svg>
