<?xml version="1.0" encoding="UTF-8" standalone="no"?>
<!DOCTYPE svg PUBLIC "-//W3C//DTD SVG 1.1//EN"
 "http://www.w3.org/Graphics/SVG/1.1/DTD/svg11.dtd">
<!-- Generated by graphviz version 2.50.0 (20211204.2007)
 -->
<!-- Pages: 1 -->
<svg width="1753pt" height="426pt"
 viewBox="0.00 0.00 1752.96 426.00" xmlns="http://www.w3.org/2000/svg" xmlns:xlink="http://www.w3.org/1999/xlink">
<g id="graph0" class="graph" transform="scale(1 1) rotate(0) translate(4 422)">
<polygon fill="white" stroke="transparent" points="-4,4 -4,-422 1748.96,-422 1748.96,4 -4,4"/>
<g id="clust1" class="cluster">
<title>cluster&#45;nid&#45;10</title>
<polygon fill="none" stroke="#cccccc" points="8,-238 8,-308 401.48,-308 401.48,-238 8,-238"/>
</g>
<g id="clust2" class="cluster">
<title>cluster&#45;nid&#45;11</title>
<polygon fill="none" stroke="#cccccc" points="8,-160 8,-230 401.48,-230 401.48,-160 8,-160"/>
</g>
<g id="clust4" class="cluster">
<title>cluster&#45;nid&#45;13</title>
<polygon fill="none" stroke="#cccccc" points="1343.48,-107 1343.48,-177 1736.96,-177 1736.96,-107 1343.48,-107"/>
</g>
<g id="clust5" class="cluster">
<title>cluster&#45;nid&#45;14</title>
<polygon fill="none" stroke="#cccccc" points="1343.48,-199 1343.48,-269 1736.96,-269 1736.96,-199 1343.48,-199"/>
</g>
<g id="clust6" class="cluster">
<title>cluster&#45;nid&#45;15</title>
<polygon fill="none" stroke="#cccccc" points="601.59,-284 601.59,-410 1112.12,-410 1112.12,-284 601.59,-284"/>
</g>
<g id="clust7" class="cluster">
<title>cluster&#45;nid&#45;16&#45;in</title>
<polygon fill="none" stroke="#cccccc" points="601.48,-192 601.48,-276 781.48,-276 781.48,-192 601.48,-192"/>
</g>
<g id="clust9" class="cluster">
<title>cluster&#45;nid&#45;17&#45;in</title>
<polygon fill="none" stroke="#cccccc" points="601.98,-100 601.98,-184 780.98,-184 780.98,-100 601.98,-100"/>
</g>
<g id="clust12" class="cluster">
<title>cluster&#45;nid&#45;18&#45;out</title>
<polygon fill="none" stroke="#cccccc" points="981.48,-8 981.48,-92 1143.48,-92 1143.48,-8 981.48,-8"/>
</g>
<g id="clust14" class="cluster">
<title>cluster&#45;nid&#45;19&#45;out</title>
<polygon fill="none" stroke="#cccccc" points="981.48,-100 981.48,-184 1143.48,-184 1143.48,-100 981.48,-100"/>
</g>
<g id="clust16" class="cluster">
<title>cluster&#45;nid&#45;1a&#45;out</title>
<polygon fill="none" stroke="#cccccc" points="984.48,-192 984.48,-276 1140.48,-276 1140.48,-192 984.48,-192"/>
</g>
<!-- nid&#45;10 -->
<g id="node1" class="node">
<title>nid&#45;10</title>
<ellipse fill="none" stroke="blue" cx="69.74" cy="-273" rx="53.98" ry="26.74"/>
<text text-anchor="middle" x="69.74" y="-276.8" font-family="Times,serif" font-size="14.00">0x10</text>
<text text-anchor="middle" x="69.74" y="-261.8" font-family="Times,serif" font-size="14.00">Stereo R/L</text>
</g>
<!-- nid&#45;10&#45;ampout -->
<g id="node2" class="node">
<title>nid&#45;10&#45;ampout</title>
<polygon fill="none" stroke="#c8c8c8" points="393.48,-273 352.98,-291 352.98,-255 393.48,-273"/>
</g>
<!-- nid&#45;10&#45;&gt;nid&#45;10&#45;ampout -->
<g id="edge1" class="edge">
<title>nid&#45;10&#45;&gt;nid&#45;10&#45;ampout</title>
<path fill="none" stroke="#c8c8c8" d="M123.77,-273C191.16,-273 303.96,-273 347.54,-273"/>
<polygon fill="#c8c8c8" stroke="#c8c8c8" points="347.74,-274.75 352.74,-273 347.74,-271.25 347.74,-274.75"/>
</g>
<!-- nid&#45;15&#45;ampin&#45;16 -->
<g id="node13" class="node">
<title>nid&#45;15&#45;ampin&#45;16</title>
<polygon fill="none" stroke="#0000ff" points="773.27,-379 650.59,-402 650.59,-356 773.27,-379"/>
<text text-anchor="middle" x="691.48" y="-375.3" font-family="Times,serif" font-size="14.00">0 (0x10)</text>
</g>
<!-- nid&#45;10&#45;ampout&#45;&gt;nid&#45;15&#45;ampin&#45;16 -->
<g id="edge13" class="edge">
<title>nid&#45;10&#45;ampout&#45;&gt;nid&#45;15&#45;ampin&#45;16</title>
<path fill="none" stroke="#333333" d="M382.63,-277.97C428.28,-292.95 566.02,-338.16 640.83,-362.71"/>
<polygon fill="#333333" stroke="#333333" points="639.92,-366.09 650.52,-365.88 642.11,-359.44 639.92,-366.09"/>
</g>
<!-- nid&#45;16&#45;in -->
<g id="node15" class="node">
<title>nid&#45;16&#45;in</title>
<polygon fill="none" stroke="green" points="773.48,-268 609.48,-268 609.48,-200 773.48,-200 773.48,-268"/>
<text text-anchor="middle" x="691.48" y="-252.8" font-family="Times,serif" font-size="14.00">0x16</text>
<text text-anchor="middle" x="691.48" y="-237.8" font-family="Times,serif" font-size="14.00">[Jack] HP Out at Ext Right</text>
<text text-anchor="middle" x="691.48" y="-222.8" font-family="Times,serif" font-size="14.00">Stereo</text>
<text text-anchor="middle" x="691.48" y="-207.8" font-family="Times,serif" font-size="14.00">OUT HP Detect</text>
</g>
<!-- nid&#45;10&#45;ampout&#45;&gt;nid&#45;16&#45;in -->
<g id="edge15" class="edge">
<title>nid&#45;10&#45;ampout&#45;&gt;nid&#45;16&#45;in</title>
<path fill="none" stroke="#333333" d="M388.18,-270.5C429.93,-265.46 526.49,-253.8 599.32,-245.01"/>
<polygon fill="#333333" stroke="#333333" points="599.92,-248.46 609.43,-243.79 599.09,-241.51 599.92,-248.46"/>
</g>
<!-- nid&#45;17&#45;in -->
<g id="node16" class="node">
<title>nid&#45;17&#45;in</title>
<polygon fill="none" stroke="green" points="772.98,-176 609.98,-176 609.98,-108 772.98,-108 772.98,-176"/>
<text text-anchor="middle" x="691.48" y="-160.8" font-family="Times,serif" font-size="14.00">0x17</text>
<text text-anchor="middle" x="691.48" y="-145.8" font-family="Times,serif" font-size="14.00">[Fixed] Speaker at Int N/A</text>
<text text-anchor="middle" x="691.48" y="-130.8" font-family="Times,serif" font-size="14.00">Stereo</text>
<text text-anchor="middle" x="691.48" y="-115.8" font-family="Times,serif" font-size="14.00">OUT</text>
</g>
<!-- nid&#45;10&#45;ampout&#45;&gt;nid&#45;17&#45;in -->
<g id="edge17" class="edge">
<title>nid&#45;10&#45;ampout&#45;&gt;nid&#45;17&#45;in</title>
<path fill="none" stroke="gray" stroke-dasharray="5,2" d="M381.36,-267.37C418.61,-252.26 523.17,-209.86 600.42,-178.52"/>
<polygon fill="gray" stroke="gray" points="601.75,-181.76 609.7,-174.76 599.12,-175.28 601.75,-181.76"/>
</g>
<!-- nid&#45;11 -->
<g id="node3" class="node">
<title>nid&#45;11</title>
<ellipse fill="none" stroke="blue" cx="69.74" cy="-195" rx="53.98" ry="26.74"/>
<text text-anchor="middle" x="69.74" y="-198.8" font-family="Times,serif" font-size="14.00">0x11</text>
<text text-anchor="middle" x="69.74" y="-183.8" font-family="Times,serif" font-size="14.00">Stereo R/L</text>
</g>
<!-- nid&#45;11&#45;ampout -->
<g id="node4" class="node">
<title>nid&#45;11&#45;ampout</title>
<polygon fill="none" stroke="#0000ff" points="393.48,-195 352.98,-213 352.98,-177 393.48,-195"/>
</g>
<!-- nid&#45;11&#45;&gt;nid&#45;11&#45;ampout -->
<g id="edge2" class="edge">
<title>nid&#45;11&#45;&gt;nid&#45;11&#45;ampout</title>
<path fill="none" stroke="#0000ff" d="M123.77,-195C191.16,-195 303.96,-195 347.54,-195"/>
<polygon fill="#0000ff" stroke="#0000ff" points="347.74,-196.75 352.74,-195 347.74,-193.25 347.74,-196.75"/>
</g>
<!-- nid&#45;15&#45;ampin&#45;17 -->
<g id="node14" class="node">
<title>nid&#45;15&#45;ampin&#45;17</title>
<polygon fill="none" stroke="#0000ff" points="773.27,-315 650.59,-338 650.59,-292 773.27,-315"/>
<text text-anchor="middle" x="691.48" y="-311.3" font-family="Times,serif" font-size="14.00">1 (0x11)</text>
</g>
<!-- nid&#45;11&#45;ampout&#45;&gt;nid&#45;15&#45;ampin&#45;17 -->
<g id="edge14" class="edge">
<title>nid&#45;11&#45;ampout&#45;&gt;nid&#45;15&#45;ampin&#45;17</title>
<path fill="none" stroke="#333333" d="M381.78,-200.31C426.53,-216.94 565.42,-268.54 640.73,-296.52"/>
<polygon fill="#333333" stroke="#333333" points="639.88,-299.93 650.47,-300.14 642.32,-293.37 639.88,-299.93"/>
</g>
<!-- nid&#45;11&#45;ampout&#45;&gt;nid&#45;16&#45;in -->
<g id="edge16" class="edge">
<title>nid&#45;11&#45;ampout&#45;&gt;nid&#45;16&#45;in</title>
<path fill="none" stroke="gray" stroke-dasharray="5,2" d="M388.18,-197.5C429.93,-202.54 526.49,-214.2 599.32,-222.99"/>
<polygon fill="gray" stroke="gray" points="599.09,-226.49 609.43,-224.21 599.92,-219.54 599.09,-226.49"/>
</g>
<!-- nid&#45;11&#45;ampout&#45;&gt;nid&#45;17&#45;in -->
<g id="edge18" class="edge">
<title>nid&#45;11&#45;ampout&#45;&gt;nid&#45;17&#45;in</title>
<path fill="none" stroke="#333333" d="M386.72,-191.84C427.71,-185.12 525.92,-169 599.65,-156.9"/>
<polygon fill="#333333" stroke="#333333" points="600.58,-160.3 609.88,-155.22 599.45,-153.39 600.58,-160.3"/>
</g>
<!-- nid&#45;13 -->
<g id="node5" class="node">
<title>nid&#45;13</title>
<ellipse fill="none" stroke="red" cx="1675.22" cy="-142" rx="53.98" ry="26.74"/>
<text text-anchor="middle" x="1675.22" y="-145.8" font-family="Times,serif" font-size="14.00">0x13</text>
<text text-anchor="middle" x="1675.22" y="-130.8" font-family="Times,serif" font-size="14.00">Stereo R/L</text>
</g>
<!-- nid&#45;13&#45;ampin -->
<g id="node6" class="node">
<title>nid&#45;13&#45;ampin</title>
<polygon fill="none" stroke="#c8c8c8" points="1405.48,-142 1364.98,-160 1364.98,-124 1405.48,-142"/>
</g>
<!-- nid&#45;13&#45;ampin&#45;&gt;nid&#45;13 -->
<g id="edge3" class="edge">
<title>nid&#45;13&#45;ampin&#45;&gt;nid&#45;13</title>
<path fill="none" stroke="#c8c8c8" d="M1405.64,-142C1452.57,-142 1552.13,-142 1615.97,-142"/>
<polygon fill="#c8c8c8" stroke="#c8c8c8" points="1616.27,-143.75 1621.27,-142 1616.27,-140.25 1616.27,-143.75"/>
</g>
<!-- nid&#45;18&#45;out -->
<g id="node7" class="node">
<title>nid&#45;18&#45;out</title>
<polygon fill="none" stroke="green" points="1135.48,-84 989.48,-84 989.48,-16 1135.48,-16 1135.48,-84"/>
<text text-anchor="middle" x="1062.48" y="-68.8" font-family="Times,serif" font-size="14.00">0x18</text>
<text text-anchor="middle" x="1062.48" y="-53.8" font-family="Times,serif" font-size="14.00">[N/A] Other at Ext N/A</text>
<text text-anchor="middle" x="1062.48" y="-38.8" font-family="Times,serif" font-size="14.00">Stereo</text>
<text text-anchor="middle" x="1062.48" y="-23.8" font-family="Times,serif" font-size="14.00">IN Detect</text>
</g>
<!-- nid&#45;18&#45;out&#45;&gt;nid&#45;13&#45;ampin -->
<g id="edge4" class="edge">
<title>nid&#45;18&#45;out&#45;&gt;nid&#45;13&#45;ampin</title>
<path fill="none" stroke="gray" stroke-dasharray="5,2" d="M1135.52,-71.11C1206.26,-91.83 1309.92,-122.21 1355.08,-135.44"/>
<polygon fill="gray" stroke="gray" points="1354.18,-138.82 1364.76,-138.27 1356.15,-132.1 1354.18,-138.82"/>
</g>
<!-- nid&#45;1a&#45;out -->
<g id="node8" class="node">
<title>nid&#45;1a&#45;out</title>
<polygon fill="none" stroke="green" points="1132.48,-268 992.48,-268 992.48,-200 1132.48,-200 1132.48,-268"/>
<text text-anchor="middle" x="1062.48" y="-252.8" font-family="Times,serif" font-size="14.00">0x1a</text>
<text text-anchor="middle" x="1062.48" y="-237.8" font-family="Times,serif" font-size="14.00">[Fixed] Mic at Int Top</text>
<text text-anchor="middle" x="1062.48" y="-222.8" font-family="Times,serif" font-size="14.00">Stereo</text>
<text text-anchor="middle" x="1062.48" y="-207.8" font-family="Times,serif" font-size="14.00">IN</text>
</g>
<!-- nid&#45;1a&#45;out&#45;&gt;nid&#45;13&#45;ampin -->
<g id="edge5" class="edge">
<title>nid&#45;1a&#45;out&#45;&gt;nid&#45;13&#45;ampin</title>
<path fill="none" stroke="#333333" d="M1132.78,-213.7C1203.5,-192.97 1309.19,-162.01 1354.98,-148.59"/>
<polygon fill="#333333" stroke="#333333" points="1356.18,-151.89 1364.79,-145.72 1354.21,-145.17 1356.18,-151.89"/>
</g>
<!-- nid&#45;14&#45;ampin -->
<g id="node11" class="node">
<title>nid&#45;14&#45;ampin</title>
<polygon fill="none" stroke="#0000ff" points="1405.48,-234 1364.98,-252 1364.98,-216 1405.48,-234"/>
</g>
<!-- nid&#45;1a&#45;out&#45;&gt;nid&#45;14&#45;ampin -->
<g id="edge9" class="edge">
<title>nid&#45;1a&#45;out&#45;&gt;nid&#45;14&#45;ampin</title>
<path fill="none" stroke="gray" stroke-dasharray="5,2" d="M1132.78,-234C1203.35,-234 1308.75,-234 1354.69,-234"/>
<polygon fill="gray" stroke="gray" points="1354.79,-237.5 1364.79,-234 1354.79,-230.5 1354.79,-237.5"/>
</g>
<!-- nid&#45;19&#45;out -->
<g id="node9" class="node">
<title>nid&#45;19&#45;out</title>
<polygon fill="none" stroke="green" points="1135.48,-176 989.48,-176 989.48,-108 1135.48,-108 1135.48,-176"/>
<text text-anchor="middle" x="1062.48" y="-160.8" font-family="Times,serif" font-size="14.00">0x19</text>
<text text-anchor="middle" x="1062.48" y="-145.8" font-family="Times,serif" font-size="14.00">[Jack] Mic at Ext Right</text>
<text text-anchor="middle" x="1062.48" y="-130.8" font-family="Times,serif" font-size="14.00">Stereo</text>
<text text-anchor="middle" x="1062.48" y="-115.8" font-family="Times,serif" font-size="14.00">IN Detect</text>
</g>
<!-- nid&#45;19&#45;out&#45;&gt;nid&#45;13&#45;ampin -->
<g id="edge6" class="edge">
<title>nid&#45;19&#45;out&#45;&gt;nid&#45;13&#45;ampin</title>
<path fill="none" stroke="gray" stroke-dasharray="5,2" d="M1135.52,-142C1205.96,-142 1309.05,-142 1354.5,-142"/>
<polygon fill="gray" stroke="gray" points="1354.76,-145.5 1364.76,-142 1354.76,-138.5 1354.76,-145.5"/>
</g>
<!-- nid&#45;19&#45;out&#45;&gt;nid&#45;14&#45;ampin -->
<g id="edge8" class="edge">
<title>nid&#45;19&#45;out&#45;&gt;nid&#45;14&#45;ampin</title>
<path fill="none" stroke="#333333" d="M1135.52,-163.11C1206.26,-183.83 1309.92,-214.21 1355.08,-227.44"/>
<polygon fill="#333333" stroke="#333333" points="1354.18,-230.82 1364.76,-230.27 1356.15,-224.1 1354.18,-230.82"/>
</g>
<!-- nid&#45;14 -->
<g id="node10" class="node">
<title>nid&#45;14</title>
<ellipse fill="none" stroke="red" cx="1675.22" cy="-234" rx="53.98" ry="26.74"/>
<text text-anchor="middle" x="1675.22" y="-237.8" font-family="Times,serif" font-size="14.00">0x14</text>
<text text-anchor="middle" x="1675.22" y="-222.8" font-family="Times,serif" font-size="14.00">Stereo R/L</text>
</g>
<!-- nid&#45;14&#45;ampin&#45;&gt;nid&#45;14 -->
<g id="edge7" class="edge">
<title>nid&#45;14&#45;ampin&#45;&gt;nid&#45;14</title>
<path fill="none" stroke="#0000ff" d="M1405.64,-234C1452.57,-234 1552.13,-234 1615.97,-234"/>
<polygon fill="#0000ff" stroke="#0000ff" points="1616.27,-235.75 1621.27,-234 1616.27,-232.25 1616.27,-235.75"/>
</g>
<!-- nid&#45;15 -->
<g id="node12" class="node">
<title>nid&#45;15</title>
<polygon fill="none" stroke="black" points="1104.26,-323 1083.37,-354.05 1041.59,-354.05 1020.7,-323 1041.59,-291.95 1083.37,-291.95 1104.26,-323"/>
<text text-anchor="middle" x="1062.48" y="-326.8" font-family="Times,serif" font-size="14.00">0x15</text>
<text text-anchor="middle" x="1062.48" y="-311.8" font-family="Times,serif" font-size="14.00">Stereo</text>
</g>
<!-- nid&#45;15&#45;&gt;nid&#45;14&#45;ampin -->
<g id="edge10" class="edge">
<title>nid&#45;15&#45;&gt;nid&#45;14&#45;ampin</title>
<path fill="none" stroke="gray" stroke-dasharray="5,2" d="M1097.98,-313.22C1162.8,-294.85 1301.11,-255.65 1355.17,-240.32"/>
<polygon fill="gray" stroke="gray" points="1356.14,-243.69 1364.81,-237.59 1354.23,-236.95 1356.14,-243.69"/>
</g>
<!-- nid&#45;15&#45;ampin&#45;16&#45;&gt;nid&#45;15 -->
<g id="edge11" class="edge">
<title>nid&#45;15&#45;ampin&#45;16&#45;&gt;nid&#45;15</title>
<path fill="none" stroke="#0000ff" d="M737.36,-372.19C809.15,-361.29 948.85,-340.09 1019.06,-329.44"/>
<polygon fill="#0000ff" stroke="#0000ff" points="1019.72,-331.11 1024.4,-328.63 1019.19,-327.65 1019.72,-331.11"/>
</g>
<!-- nid&#45;15&#45;ampin&#45;17&#45;&gt;nid&#45;15 -->
<g id="edge12" class="edge">
<title>nid&#45;15&#45;ampin&#45;17&#45;&gt;nid&#45;15</title>
<path fill="none" stroke="#0000ff" d="M764.94,-316.57C839.46,-318.19 953.21,-320.65 1015.96,-322.01"/>
<polygon fill="#0000ff" stroke="#0000ff" points="1016.09,-323.77 1021.13,-322.13 1016.17,-320.27 1016.09,-323.77"/>
</g>
</g>
</svg>
